<?xml version="1.0" standalone="no"?>
<!DOCTYPE svg PUBLIC "-//W3C//DTD SVG 20010904//EN"
 "http://www.w3.org/TR/2001/REC-SVG-20010904/DTD/svg10.dtd">
<svg version="1.0" xmlns="http://www.w3.org/2000/svg"
 width="631.000000pt" height="631.000000pt" viewBox="0 0 631.000000 631.000000"
 preserveAspectRatio="xMidYMid meet">

<g transform="translate(0.000000,631.000000) scale(0.100000,-0.100000)"
fill="#000000" stroke="none">
<path d="M0 5899 l0 -410 27 3 c26 3 27 6 25 44 -3 31 1 43 13 47 8 4 354 7
768 9 413 1 894 5 1067 8 173 4 547 10 830 14 283 3 616 9 740 12 203 6 227 5
239 -10 13 -15 12 -16 -13 -6 -35 13 -89 13 -81 0 3 -5 1 -10 -4 -10 -6 0 -11
5 -11 10 0 6 -25 9 -57 8 -53 -1 -55 -2 -18 -7 24 -4 -17 -8 -105 -12 -120 -4
-100 -5 112 -6 141 0 257 2 256 6 -4 36 49 71 330 217 61 33 112 63 112 68 0
4 -16 6 -35 4 -19 -2 -32 -1 -27 4 12 12 75 16 99 7 15 -5 21 -13 17 -24 -5
-11 0 -18 15 -22 11 -3 21 -8 21 -12 0 -11 69 -33 81 -25 8 4 9 -1 3 -17 -4
-13 -7 -38 -6 -54 1 -25 -4 -33 -26 -42 -15 -6 -56 -23 -92 -38 -36 -15 -74
-36 -86 -46 -11 -10 -25 -19 -31 -19 -23 0 -89 -36 -86 -46 2 -7 -8 -9 -27 -6
-16 2 -49 -4 -72 -13 -37 -15 -87 -18 -343 -22 -165 -2 -597 -8 -960 -14 -363
-5 -1113 -13 -1667 -16 l-1008 -6 0 -230 0 -229 45 4 c39 3 45 1 46 -17 0 -11
2 -29 4 -40 2 -11 7 -42 11 -70 l8 -50 8 70 c5 39 9 78 9 88 1 29 28 19 46
-17 21 -45 83 -65 83 -27 0 18 29 51 31 35 1 -5 4 2 8 16 l7 25 169 -1 c169
-2 235 -4 235 -10 0 -2 -10 -19 -21 -39 -14 -24 -20 -45 -16 -64 4 -21 1 -34
-14 -46 -34 -32 -12 -28 44 8 41 27 58 45 67 72 9 27 9 40 1 48 -8 8 -12 2
-17 -20 -6 -32 -49 -82 -60 -71 -3 4 6 25 20 47 19 30 25 51 23 76 -3 20 0 38
4 41 5 3 9 1 9 -5 0 -6 11 -13 25 -17 14 -3 25 -11 26 -18 4 -40 -5 -86 -22
-115 -11 -18 -18 -36 -15 -38 6 -7 75 89 76 105 0 6 4 12 9 12 5 0 7 -32 4
-72 -8 -103 -7 -114 11 -198 17 -76 15 -155 -5 -192 -6 -11 -12 -49 -13 -86
-5 -95 -16 -141 -36 -152 -12 -7 -18 -6 -17 3 1 33 -4 57 -12 57 -5 0 -8 -11
-8 -25 -1 -14 -9 -32 -18 -39 -17 -12 -15 -14 18 -20 21 -4 37 -12 37 -19 0
-26 -13 -56 -21 -51 -5 3 -9 -5 -10 -18 0 -23 0 -23 -9 -2 -15 37 -30 38 -31
2 l-1 -33 -12 27 c-10 23 -13 25 -22 11 -11 -18 -117 -42 -186 -43 -26 0 -49
-4 -52 -8 -2 -4 -28 -9 -57 -10 -38 -2 -55 2 -64 14 -11 15 -12 15 -18 -5 -5
-19 -1 -21 36 -23 40 -1 40 -1 7 -5 -78 -7 -104 -14 -90 -23 20 -12 9 -20 -18
-13 -23 6 -31 41 -9 40 39 -1 53 5 54 22 1 14 -7 22 -28 26 -40 9 -31 30 12
30 31 0 34 3 37 33 2 22 -1 32 -10 32 -8 0 -31 9 -53 20 -22 11 -45 20 -52 20
-12 0 -25 36 -39 109 -4 21 -14 36 -25 38 -11 3 -16 10 -12 17 4 6 -1 4 -12
-4 -10 -8 -27 -13 -38 -12 -17 3 -19 0 -14 -28 5 -23 4 -29 -6 -24 -6 4 -2 -3
10 -15 12 -11 27 -21 33 -21 13 0 13 -17 0 -25 -15 -9 -12 -25 5 -25 10 0 13
-9 10 -36 -3 -22 -1 -33 5 -29 5 3 10 1 10 -5 0 -6 5 -8 10 -5 6 4 7 11 4 17
-4 6 -2 13 4 17 7 4 5 29 -4 76 -22 117 -11 130 16 16 10 -43 10 -68 0 -130
-7 -42 -18 -79 -24 -83 -18 -12 -29 -9 -22 7 4 10 -1 15 -15 15 -12 0 -17 4
-13 11 7 11 -12 29 -31 29 -5 0 -3 -5 5 -10 8 -5 10 -10 4 -10 -7 0 -19 12
-29 26 -9 15 -13 24 -7 20 6 -3 19 -3 30 1 19 8 19 10 6 48 -12 36 -12 41 4
54 16 13 16 13 0 8 -13 -5 -20 2 -28 31 -5 20 -10 45 -10 55 0 9 -7 17 -16 17
-17 0 -14 -26 11 -105 7 -22 16 -56 19 -75 l6 -35 -15 30 c-8 17 -14 40 -15
53 0 12 -4 22 -9 22 -5 0 -12 12 -14 28 -2 15 -5 -29 -5 -98 -1 -116 0 -123
13 -92 8 17 17 32 20 32 3 0 5 -49 5 -109 0 -101 -2 -110 -20 -116 -26 -8 -26
-25 1 -25 18 0 20 -5 17 -50 -3 -56 -12 -63 -26 -22 -8 19 -11 -36 -11 -200
-1 -143 3 -229 9 -233 15 -9 52 -85 48 -97 -2 -5 -15 14 -28 44 -31 67 -35 50
-20 -90 17 -166 24 -461 12 -504 -7 -27 -7 -38 0 -38 6 0 8 -3 5 -7 -4 -3 -2
-12 4 -20 14 -16 -3 -17 -19 -1 -9 9 -12 -43 -12 -236 l0 -247 28 3 c19 2 27
8 26 21 -1 10 3 16 10 14 6 -2 11 -22 12 -44 1 -22 4 -44 7 -49 3 -5 -1 -39
-10 -74 -8 -36 -12 -78 -8 -95 4 -16 9 -142 11 -280 2 -137 7 -256 9 -264 10
-27 -7 -221 -20 -221 -6 0 -17 -11 -23 -25 -13 -27 -27 -32 -35 -12 -3 6 -6
-14 -6 -45 l-1 -58 35 0 c36 0 152 35 169 51 14 13 -11 11 -35 -1 -16 -9 -19
-7 -19 13 0 12 -5 28 -11 34 -6 6 -9 28 -7 49 3 38 4 39 39 38 35 -1 38 2 60
49 13 28 39 76 58 107 18 30 56 100 83 155 28 55 59 112 69 127 24 33 24 38 0
38 -37 0 -31 18 8 25 25 4 50 18 70 39 27 28 33 43 37 92 6 69 21 114 42 132
17 13 53 17 50 4 -1 -4 4 -20 10 -35 7 -16 9 -34 5 -40 -4 -7 -8 -16 -9 -22
-1 -5 -6 -19 -10 -29 -6 -15 -4 -17 7 -11 8 4 2 -4 -13 -17 -16 -14 -28 -32
-28 -40 0 -9 -9 -27 -20 -41 -11 -14 -20 -30 -20 -36 0 -6 -4 -11 -9 -11 -5 0
-28 -36 -50 -80 -23 -44 -45 -80 -49 -80 -5 0 -23 -34 -42 -76 -18 -41 -41
-79 -51 -85 -10 -5 -24 -28 -31 -52 -7 -23 -18 -48 -25 -55 -7 -7 -13 -19 -13
-26 0 -7 -9 -25 -21 -40 -11 -14 -24 -38 -29 -53 -4 -16 -11 -37 -16 -47 -5
-14 -4 -17 5 -12 7 5 16 19 22 33 5 13 14 21 19 18 10 -6 8 -36 -6 -105 -4
-17 -2 -22 5 -15 5 6 12 24 14 40 3 17 4 4 2 -29 l-3 -58 31 5 c282 48 545 94
872 154 77 14 174 31 215 38 41 8 228 42 415 75 403 73 439 76 515 37 30 -15
69 -40 87 -57 36 -34 38 -33 82 52 48 92 103 192 123 221 18 26 66 57 87 57
11 0 67 -133 88 -209 8 -31 30 -114 48 -186 19 -71 49 -175 68 -230 19 -55 43
-134 52 -175 16 -67 96 -285 128 -350 7 -14 22 -26 33 -28 20 -3 21 1 16 80
-2 46 -10 93 -18 105 -8 12 -14 34 -14 48 0 14 -4 25 -10 25 -5 0 -10 11 -10
24 0 13 -6 27 -12 29 -8 3 -6 6 5 6 9 1 17 5 17 10 0 20 33 41 65 41 53 0 135
-20 135 -33 0 -7 -6 -23 -13 -37 -7 -14 -21 -52 -31 -85 -23 -73 -100 -231
-130 -264 l-21 -25 25 15 c14 9 35 22 48 30 12 8 22 21 22 29 0 13 1 13 10 0
9 -13 11 -13 20 0 8 12 12 12 18 2 6 -9 16 -6 38 13 16 14 37 24 47 21 22 -5
22 17 1 50 l-17 25 27 -12 c31 -14 44 -6 26 16 -17 21 -7 29 20 15 20 -11 21
-10 11 9 -15 28 -14 36 4 21 23 -19 30 -4 9 18 -21 21 -104 67 -116 64 -12 -3
-9 11 6 31 14 18 23 16 66 -11 2 -2 -1 -6 -7 -10 -9 -5 -5 -12 10 -21 20 -13
21 -13 8 2 -7 10 -10 17 -5 17 15 0 63 -66 70 -96 17 -75 16 -104 -5 -148 -30
-61 -107 -137 -175 -171 -31 -15 -56 -30 -56 -32 0 -2 22 -1 50 3 27 4 57 3
67 -1 37 -16 64 -14 76 6 9 14 23 19 59 19 25 0 48 5 50 11 2 5 21 14 43 19
40 9 95 -1 122 -22 7 -6 20 -8 28 -4 10 3 13 2 10 -5 -4 -6 2 -13 14 -16 12
-3 21 -9 21 -14 0 -5 11 -9 25 -9 14 0 28 -7 31 -15 4 -8 13 -15 21 -15 23 0
89 -49 72 -54 -66 -21 -117 -36 -134 -39 -11 -2 -27 -7 -35 -10 -25 -9 -198
-35 -320 -48 -200 -20 -373 -47 -435 -67 -33 -11 -50 -20 -38 -21 12 -1 33 3
48 9 19 7 24 7 19 -1 -6 -11 260 -8 681 6 89 3 133 1 120 -4 -12 -6 468 -10
1238 -10 l1257 -1 0 3155 0 3155 -1670 0 -1670 0 91 -78 c50 -42 121 -101 158
-130 36 -29 82 -66 101 -82 19 -16 72 -56 117 -90 45 -33 85 -65 89 -71 18
-29 -337 230 -426 311 -19 17 -65 56 -101 86 l-66 54 -893 0 c-491 0 -891 -2
-889 -4 2 -2 81 -38 174 -81 225 -103 337 -159 325 -163 -9 -3 -221 91 -400
177 -51 25 -95 40 -110 38 -14 -2 -19 -2 -12 0 19 7 14 20 -10 27 -13 3 -269
6 -570 6 l-548 0 0 -411z m4400 346 c0 -8 -2 -15 -4 -15 -2 0 -6 7 -10 15 -3
8 -1 15 4 15 6 0 10 -7 10 -15z m-134 -61 c17 -35 27 -64 24 -64 -7 0 -70 112
-70 124 0 21 19 -4 46 -60z m76 6 c22 -48 24 -60 12 -60 -8 0 -13 4 -9 10 3 5
1 17 -4 27 -26 47 -41 83 -34 83 5 -1 20 -28 35 -60z m-1874 43 c-10 -2 -26
-2 -35 0 -10 3 -2 5 17 5 19 0 27 -2 18 -5z m1622 -30 c23 -44 43 -76 50 -83
11 -11 42 -72 38 -75 -4 -4 -118 178 -118 189 0 15 11 3 30 -31z m70 27 c0 -6
18 -43 40 -82 22 -39 39 -72 38 -74 -2 -1 -27 35 -55 82 -34 55 -47 84 -37 84
8 0 14 -5 14 -10z m-1787 -7 c-7 -2 -21 -2 -30 0 -10 3 -4 5 12 5 17 0 24 -2
18 -5z m1627 -4 c0 -12 59 -101 74 -111 7 -5 7 -8 1 -8 -6 0 -6 -3 0 -8 6 -4
19 -20 29 -37 35 -57 -11 -2 -73 88 -39 56 -55 87 -46 87 8 0 15 -5 15 -11z
m-1722 -6 c-16 -2 -40 -2 -55 0 -16 2 -3 4 27 4 30 0 43 -2 28 -4z m1662 -30
c40 -61 43 -70 10 -33 -36 40 -54 70 -43 70 4 0 19 -17 33 -37z m-1787 20 c-7
-2 -21 -2 -30 0 -10 3 -4 5 12 5 17 0 24 -2 18 -5z m1626 -29 c13 -19 37 -46
53 -59 15 -13 28 -27 28 -32 0 -4 11 -21 25 -36 14 -15 22 -27 17 -27 -5 0
-25 19 -43 42 -19 23 -39 46 -44 52 -30 32 -76 96 -68 96 4 0 19 -16 32 -36z
m90 -9 c17 -24 37 -50 44 -57 7 -7 25 -31 41 -53 17 -22 32 -42 35 -45 4 -3
15 -17 26 -31 25 -31 -39 34 -82 85 -18 21 -33 42 -33 46 0 5 -3 10 -8 12 -13
6 -74 88 -65 88 5 0 24 -20 42 -45z m-179 14 c0 -6 -4 -7 -10 -4 -5 3 -10 11
-10 16 0 6 5 7 10 4 6 -3 10 -11 10 -16z m-118 -44 c39 -42 57 -55 79 -55 16
0 29 4 29 8 0 4 -20 28 -45 52 -24 24 -43 46 -40 48 2 2 27 -21 56 -52 41 -44
56 -55 73 -51 17 5 18 4 6 -4 -8 -6 -37 -11 -63 -11 -42 0 -53 4 -79 33 -16
17 -42 44 -56 60 -14 15 -22 27 -18 27 4 0 30 -25 58 -55z m-1719 38 c-7 -2
-21 -2 -30 0 -10 3 -4 5 12 5 17 0 24 -2 18 -5z m1608 -85 c9 -10 27 -18 40
-18 19 0 21 -2 9 -10 -8 -5 -17 -10 -20 -10 -9 0 -130 117 -130 126 0 7 59
-45 101 -88z m45 32 c46 -44 57 -60 43 -60 -10 0 -19 6 -19 14 0 7 -23 34 -51
60 -28 25 -47 46 -43 46 4 0 35 -27 70 -60z m-272 35 c-4 -8 -11 -12 -16 -9
-6 4 -5 10 3 15 19 12 19 11 13 -6z m125 -45 c35 -33 59 -60 54 -60 -5 0 -16
8 -24 18 -9 11 -25 25 -35 33 -23 17 -70 69 -62 69 2 0 33 -27 67 -60z m-2054
20 c3 -5 1 -10 -4 -10 -6 0 -11 5 -11 10 0 6 2 10 4 10 3 0 8 -4 11 -10z m72
4 c-3 -3 -12 -4 -19 -1 -8 3 -5 6 6 6 11 1 17 -2 13 -5z m56 -1 c-7 -2 -21 -2
-30 0 -10 3 -4 5 12 5 17 0 24 -2 18 -5z m-260 -10 c-7 -2 -19 -2 -25 0 -7 3
-2 5 12 5 14 0 19 -2 13 -5z m64 1 c-3 -3 -12 -4 -19 -1 -8 3 -5 6 6 6 11 1
17 -2 13 -5z m-200 -10 c-3 -3 -12 -4 -19 -1 -8 3 -5 6 6 6 11 1 17 -2 13 -5z
m2261 -19 c16 -14 37 -32 48 -40 10 -8 15 -14 9 -14 -12 0 -104 78 -92 79 4 0
20 -11 35 -25z m735 -40 c46 -66 49 -84 5 -25 -58 76 -61 80 -52 80 5 -1 26
-25 47 -55z m278 33 c11 -21 11 -22 -4 -9 -10 7 -17 17 -17 22 0 15 9 10 21
-13z m-531 -8 c0 -5 -7 -7 -15 -4 -8 4 -12 10 -9 15 6 11 24 2 24 -11z m31
-37 c13 -16 12 -17 -3 -4 -10 7 -18 15 -18 17 0 8 8 3 21 -13z m453 1 c9 -24
2 -26 -12 -4 -7 11 -8 20 -3 20 5 0 12 -7 15 -16z m-53 -36 c11 -21 11 -22 -4
-9 -10 7 -17 17 -17 22 0 15 9 10 21 -13z m-3684 -3 c18 -4 35 -10 38 -14 5
-9 -95 15 -104 25 -3 4 3 4 14 1 11 -3 35 -8 52 -12z m3423 -30 c19 -19 32
-35 29 -35 -3 0 -20 16 -39 35 -19 19 -32 35 -29 35 3 0 20 -16 39 -35z m-79
8 c13 -16 12 -17 -3 -4 -17 13 -22 21 -14 21 2 0 10 -8 17 -17z m-3217 -17
c32 -10 56 -19 53 -22 -7 -8 -127 28 -127 38 0 5 3 7 8 5 4 -3 33 -12 66 -21z
m1303 18 c-3 -3 -12 -4 -19 -1 -8 3 -5 6 6 6 11 1 17 -2 13 -5z m115 -35 c46
-17 116 -46 157 -65 40 -19 84 -37 97 -40 22 -6 44 -24 29 -24 -3 0 -59 23
-123 51 -64 28 -151 64 -192 80 -41 15 -70 28 -63 29 6 0 49 -14 95 -31z
m-779 -6 c-13 -2 -35 -2 -50 0 -16 2 -5 4 22 4 28 0 40 -2 28 -4z m-511 -16
c26 -7 50 -15 53 -19 8 -8 -65 7 -95 20 -34 14 -15 14 42 -1z m355 6 c-20 -2
-52 -2 -70 0 -17 2 0 4 38 4 39 0 53 -2 32 -4z m1700 1 c-3 -3 -12 -4 -19 -1
-8 3 -5 6 6 6 11 1 17 -2 13 -5z m-1930 -10 c-3 -3 -12 -4 -19 -1 -8 3 -5 6 6
6 11 1 17 -2 13 -5z m40 0 c-3 -3 -12 -4 -19 -1 -8 3 -5 6 6 6 11 1 17 -2 13
-5z m40 0 c-3 -3 -12 -4 -19 -1 -8 3 -5 6 6 6 11 1 17 -2 13 -5z m1620 0 c-3
-3 -12 -4 -19 -1 -8 3 -5 6 6 6 11 1 17 -2 13 -5z m1474 -11 c13 -16 12 -17
-3 -4 -17 13 -22 21 -14 21 2 0 10 -8 17 -17z m1056 -251 c1 -220 1 -223 -7
-82 -5 80 -11 188 -15 240 -5 79 -4 93 7 82 10 -10 13 -67 15 -240z m-4242
228 c13 -5 14 -9 5 -9 -8 0 -24 4 -35 9 -13 5 -14 9 -5 9 8 0 24 -4 35 -9z
m2312 -16 c-3 -3 -12 -4 -19 -1 -8 3 -5 6 6 6 11 1 17 -2 13 -5z m60 0 c-3 -3
-12 -4 -19 -1 -8 3 -5 6 6 6 11 1 17 -2 13 -5z m60 0 c-3 -3 -12 -4 -19 -1 -8
3 -5 6 6 6 11 1 17 -2 13 -5z m-240 -10 c-3 -3 -12 -4 -19 -1 -8 3 -5 6 6 6
11 1 17 -2 13 -5z m60 0 c-3 -3 -12 -4 -19 -1 -8 3 -5 6 6 6 11 1 17 -2 13 -5z
m-467 -20 c0 -2 -35 -3 -77 -2 l-78 1 65 6 c61 6 90 4 90 -5z m58 9 c-10 -2
-26 -2 -35 0 -10 3 -2 5 17 5 19 0 27 -2 18 -5z m70 0 c-10 -2 -26 -2 -35 0
-10 3 -2 5 17 5 19 0 27 -2 18 -5z m-1768 -13 c0 -5 -7 -7 -15 -4 -8 4 -15 8
-15 10 0 2 7 4 15 4 8 0 15 -4 15 -10z m1473 3 c5 -8 -69 -11 -77 -3 -2 3 13
6 34 8 21 1 41 -1 43 -5z m642 -33 c12 -19 -12 -10 -31 11 -19 22 -19 22 3 10
12 -6 25 -16 28 -21z m-400 10 c4 -6 30 -8 63 -5 45 4 51 3 28 -5 -16 -5 -33
-7 -38 -4 -5 3 -7 2 -6 -3 2 -4 0 -9 -5 -11 -8 -3 -67 26 -67 33 0 9 19 5 25
-5z m1795 -96 c16 -36 30 -71 30 -77 0 -12 -69 122 -70 136 -1 20 12 1 40 -59z
m994 -148 c-36 -69 -67 -126 -69 -126 -5 0 60 143 91 198 36 64 35 64 40 59 3
-2 -25 -61 -62 -131z m-1219 54 c-3 -5 -11 -10 -16 -10 -6 0 -7 5 -4 10 3 6
11 10 16 10 6 0 7 -4 4 -10z m-85 -40 c0 -5 -4 -10 -10 -10 -5 0 -10 5 -10 10
0 6 5 10 10 10 6 0 10 -4 10 -10z m133 3 c-7 -2 -21 -2 -30 0 -10 3 -4 5 12 5
17 0 24 -2 18 -5z m-193 -33 c0 -13 -11 -13 -30 0 -12 8 -11 10 8 10 12 0 22
-4 22 -10z m145 0 c-3 -5 -25 -9 -48 -8 l-42 1 45 7 c25 4 46 8 48 8 2 1 0 -2
-3 -8z m55 0 c0 -5 -4 -10 -9 -10 -6 0 -13 5 -16 10 -3 6 1 10 9 10 9 0 16 -4
16 -10z m-337 -37 c-7 -2 -19 -2 -25 0 -7 3 -2 5 12 5 14 0 19 -2 13 -5z m676
-143 c110 -22 210 -40 221 -40 11 0 20 -4 20 -10 0 -5 -9 -10 -21 -10 -11 0
-34 -10 -51 -21 -21 -15 -44 -21 -76 -21 -83 2 -175 24 -211 51 -18 14 -54 41
-79 59 -61 42 -53 42 197 -8z m674 -47 c-18 -7 -16 -31 4 -51 16 -16 14 -17
-33 -23 -85 -11 -327 -11 -356 0 -21 8 -28 17 -28 38 l0 28 87 -1 c49 0 122 2
163 6 92 8 179 10 163 3z m-433 -38 c0 -11 -11 -15 -42 -14 -24 1 -33 4 -20 6
12 2 22 9 22 14 0 5 9 9 20 9 11 0 20 -7 20 -15z m-917 -165 c6 -21 38 -18 33
3 -1 7 -1 9 1 5 3 -5 10 -8 16 -8 7 0 20 -14 30 -31 11 -20 23 -29 32 -25 8 3
17 1 20 -4 4 -6 1 -10 -4 -10 -6 0 -11 -4 -11 -10 0 -5 11 -10 25 -10 16 0 25
-6 25 -15 0 -8 11 -25 25 -37 27 -24 33 -43 11 -35 -10 4 -16 -5 -21 -34 -4
-21 -11 -42 -16 -45 -6 -3 -5 -12 3 -22 10 -12 10 -16 0 -19 -6 -3 -10 -9 -7
-13 3 -5 12 -7 20 -3 11 4 13 1 9 -11 -4 -11 -1 -16 10 -16 9 0 16 -8 16 -20
0 -13 12 -26 35 -37 58 -28 56 -73 -3 -88 -26 -6 -61 -21 -154 -65 -24 -11
-59 -35 -78 -52 l-35 -32 2 -162 c2 -112 7 -175 18 -206 8 -24 12 -55 10 -68
-3 -13 1 -36 9 -51 17 -34 -2 -85 -36 -99 -27 -11 -30 -10 55 -13 37 -2 67 1
67 5 0 4 6 8 13 8 7 0 28 16 47 35 47 49 44 96 -13 182 -23 35 -45 63 -49 63
-4 0 -8 4 -8 9 0 6 12 9 27 8 16 -1 28 3 28 10 0 7 8 18 18 26 16 11 17 15 4
25 -12 10 -13 18 -2 50 11 32 20 39 61 54 36 12 43 17 24 17 -32 2 -51 14 -42
27 11 18 48 26 87 18 28 -5 33 -9 25 -19 -16 -20 0 -24 50 -15 25 5 71 9 104
10 47 0 57 -3 53 -14 -4 -10 -1 -13 9 -9 10 4 14 -2 14 -21 0 -16 6 -26 15
-26 8 0 15 -7 15 -15 0 -8 -4 -15 -9 -15 -5 0 -7 -9 -4 -20 3 -11 9 -20 14
-20 5 0 9 -7 9 -16 0 -8 -4 -12 -10 -9 -5 3 -18 1 -27 -4 -10 -6 -13 -11 -7
-11 6 0 16 -11 22 -25 10 -22 9 -27 -6 -32 -34 -12 -43 -24 -30 -41 8 -9 12
-40 11 -78 -1 -50 1 -64 13 -64 23 0 22 -111 -2 -169 -10 -24 -11 -37 -3 -47
7 -9 7 -19 -1 -33 -6 -12 -10 -27 -8 -34 2 -14 -37 -93 -52 -102 -6 -4 -17
-22 -25 -41 -8 -19 -19 -34 -24 -34 -6 0 -11 -5 -11 -11 0 -6 -16 -25 -35 -41
-19 -17 -32 -35 -29 -40 3 -4 1 -8 -5 -8 -6 0 -20 -17 -32 -38 -23 -40 -50
-57 -107 -68 -17 -4 -32 -11 -32 -16 0 -5 -15 -8 -32 -6 -22 2 -32 8 -30 17 2
9 -3 11 -13 7 -9 -3 -21 -6 -26 -6 -5 0 -7 -11 -3 -25 7 -30 -5 -32 -33 -6
-21 20 -21 20 -26 0 -4 -15 -14 -19 -49 -19 -23 1 -54 7 -68 15 -35 20 -45 18
-59 -7 -12 -23 -10 -11 5 27 4 11 4 17 -1 13 -10 -10 -37 11 -29 23 3 5 -1 6
-9 4 -18 -7 -185 150 -233 220 -34 50 -39 54 -54 40 -22 -20 -31 -19 -24 3 5
16 5 16 -6 0 -8 -14 -23 -18 -63 -16 l-52 2 48 3 c63 5 60 18 -5 19 -72 1
-118 7 -118 17 0 4 50 7 110 7 61 0 110 3 109 8 0 4 -10 27 -22 51 l-22 44
-75 1 c-74 1 -75 1 -78 29 l-3 27 69 0 69 0 -21 55 -21 55 -47 0 c-74 0 -99
20 -63 50 9 7 12 22 9 39 -5 23 -2 29 15 34 24 6 29 27 6 27 -18 0 -20 21 -4
37 7 7 8 19 4 30 -4 10 -9 23 -10 29 -2 7 -18 43 -36 80 l-32 69 -20 -70 c-11
-39 -24 -73 -31 -77 -8 -6 -7 -8 2 -8 13 0 16 -28 4 -47 -6 -9 -28 -10 -87 -4
l-80 8 75 3 c71 2 73 2 35 12 -22 5 -62 7 -89 5 l-48 -4 5 34 c4 22 2 35 -6
37 -7 2 -49 12 -94 21 -96 21 -115 30 -93 45 13 9 13 10 0 10 -13 0 -13 1 0
10 8 5 10 10 5 10 -6 0 -12 10 -12 22 -2 24 -23 68 -32 68 -3 0 -15 -14 -26
-30 -11 -16 -28 -30 -37 -30 -9 0 -25 -12 -35 -27 -10 -14 -31 -39 -46 -54
-16 -16 -27 -34 -25 -41 10 -28 -43 -38 -201 -37 -127 0 -151 3 -131 12 38 18
47 29 43 52 -4 15 -2 17 5 6 12 -17 18 -7 27 49 4 25 13 48 19 52 6 4 -1 8
-16 8 -18 0 -28 -5 -28 -15 0 -8 -2 -15 -5 -15 -11 0 -42 38 -59 73 -19 41
-17 48 31 92 25 22 53 133 53 213 0 26 4 63 9 83 14 59 -6 96 -84 162 -79 66
-92 84 -76 100 9 9 164 13 564 15 360 3 556 7 565 14 6 6 0 -20 -14 -58 -56
-150 -69 -320 -34 -454 25 -96 25 -110 0 -110 -11 0 -20 -4 -20 -10 0 -5 9
-10 19 -10 16 0 21 -9 26 -47 10 -71 13 -74 15 -13 0 30 7 81 15 114 14 60 11
86 -34 261 -15 56 -13 111 3 124 7 6 17 30 20 53 5 33 9 39 17 28 8 -11 9 -8
4 13 -4 19 -2 26 5 22 5 -3 10 0 10 8 0 8 7 18 15 21 9 3 15 13 13 22 -2 9 3
19 11 22 8 2 11 0 7 -6 -3 -5 1 -13 9 -16 9 -3 20 3 27 13 7 11 18 17 27 13
11 -4 13 -1 8 13 -4 9 -2 24 4 31 15 18 30 18 23 1 -3 -8 2 -20 11 -27 9 -7
15 -8 15 -2 0 15 32 20 51 8 12 -7 24 -4 44 12 19 15 42 22 74 23 25 0 55 4
66 8 12 5 25 4 33 -2 9 -7 16 -5 25 6 14 18 37 24 98 26 39 1 48 -2 52 -19z
m-393 -20 c21 -13 10 -19 -23 -13 -21 4 -25 8 -15 14 16 11 20 11 38 -1z
m-2850 -20 c0 -5 -5 -10 -11 -10 -5 0 -7 5 -4 10 3 6 8 10 11 10 2 0 4 -4 4
-10z m2720 -4 c0 -3 -4 -8 -10 -11 -5 -3 -10 -1 -10 4 0 6 5 11 10 11 6 0 10
-2 10 -4z m-2690 -48 c0 -16 -3 -19 -11 -11 -6 6 -8 16 -5 22 11 17 16 13 16
-11z m1230 -12 c40 -15 47 -44 14 -61 -31 -15 -54 -36 -54 -47 0 -6 8 -4 17 3
18 15 18 16 -3 -36 -3 -8 -2 -15 4 -15 6 0 13 6 15 13 4 8 6 7 6 -3 0 -8 -6
-26 -14 -40 -8 -14 -14 -35 -15 -47 0 -13 -4 -23 -9 -23 -5 0 -11 -17 -15 -39
-3 -21 -13 -44 -21 -51 -8 -7 -15 -18 -15 -24 0 -7 -9 -31 -20 -54 -14 -28
-18 -51 -14 -68 5 -19 4 -25 -5 -20 -6 4 -11 3 -11 -3 0 -5 6 -12 13 -14 6 -3
2 -6 -10 -6 -16 -1 -26 -12 -38 -46 -10 -24 -21 -42 -26 -40 -4 3 -12 -3 -18
-12 -10 -17 -10 -17 -11 0 0 16 -5 17 -31 12 -18 -4 -43 -8 -58 -10 -14 -1
-47 -5 -73 -10 -34 -5 -48 -4 -48 4 0 7 -10 22 -22 34 -13 13 -29 35 -35 50
-7 15 -17 27 -23 27 -5 0 -10 11 -10 25 0 14 -7 28 -15 31 -27 11 -54 68 -65
139 -13 80 -46 197 -59 205 -5 3 -12 35 -16 73 l-7 67 328 -1 c238 0 339 -4
364 -13z m-1243 -38 c-3 -8 -6 -5 -6 6 -1 11 2 17 5 13 3 -3 4 -12 1 -19z
m4753 18 c0 -3 -4 -8 -10 -11 -5 -3 -10 -1 -10 4 0 6 5 11 10 11 6 0 10 -2 10
-4z m-205 -98 c-12 -140 -18 -166 -58 -247 l-42 -83 -38 5 c-46 6 -54 12 -39
30 9 10 8 19 -4 35 -8 12 -11 22 -5 22 23 0 -2 29 -27 32 -19 2 -26 8 -24 21
4 24 -40 23 -63 -3 -10 -11 -22 -17 -26 -14 -5 3 -6 -2 -3 -10 3 -9 9 -16 13
-16 16 0 33 -78 28 -126 -12 -104 -26 -154 -42 -148 -7 3 -11 14 -8 25 5 16 8
18 14 7 6 -8 9 5 10 37 3 75 3 77 -35 140 l-36 58 25 25 c14 14 25 32 25 41 0
29 19 39 61 31 38 -7 39 -7 23 11 -9 11 -29 19 -44 19 -33 0 -44 12 -57 67
-19 75 -23 73 274 81 l82 2 -4 -42z m125 22 c-6 -11 -13 -20 -16 -20 -2 0 0 9
6 20 6 11 13 20 16 20 2 0 0 -9 -6 -20z m-114 -131 c-8 -19 -15 -26 -15 -17
-1 23 20 75 26 62 2 -7 -3 -27 -11 -45z m-441 -69 c-10 -11 -20 -18 -23 -15
-7 6 18 35 31 35 5 0 2 -9 -8 -20z m34 -124 c50 -72 54 -119 16 -181 -27 -43
-34 -35 -10 11 8 16 15 43 15 60 0 32 -21 60 -35 46 -5 -4 -5 1 -2 11 8 20
-21 37 -32 19 -7 -12 -51 -12 -51 0 0 4 5 8 10 8 6 0 10 5 10 10 0 15 30 84
34 79 2 -2 22 -31 45 -63z m184 10 c24 -18 21 -33 -5 -32 -25 1 -43 20 -33 36
8 13 16 12 38 -4z m-742 -35 c26 -24 16 -30 -64 -41 -103 -15 -163 -20 -147
-13 8 3 20 12 25 18 11 14 120 54 148 55 10 0 27 -9 38 -19z m201 -56 c7 0 14
-12 16 -27 2 -16 9 -28 15 -28 25 -1 -28 -30 -55 -30 -28 0 -37 13 -17 25 6 4
8 14 5 22 -9 22 5 68 15 51 5 -7 14 -13 21 -13z m-3153 -44 l25 -19 -20 -43
c-10 -24 -19 -46 -20 -49 0 -5 -20 -75 -30 -112 -6 -22 -24 -24 -24 -3 0 8 -7
15 -15 15 -8 0 -15 7 -15 15 0 9 8 14 21 12 12 -1 24 4 27 12 3 10 -1 11 -18
6 -15 -5 -26 -2 -31 6 -15 24 -10 31 23 27 17 -2 33 2 35 8 2 6 -9 11 -27 11
-35 0 -45 7 -37 27 5 12 13 13 38 6 17 -5 36 -7 41 -4 13 8 -1 24 -22 24 -24
0 -36 18 -21 33 6 6 11 19 11 29 0 23 28 23 59 -1z m2821 -10 c0 -13 -10 -20
-32 -25 -41 -8 -49 1 -19 25 30 24 51 24 51 0z m-2732 -66 c1 -50 -1 -55 -20
-55 -21 0 -21 0 -2 -15 10 -8 29 -15 42 -15 15 0 22 -6 22 -20 0 -11 -7 -20
-15 -20 -8 0 -15 -8 -15 -19 0 -10 7 -24 15 -31 8 -7 15 -17 15 -23 0 -7 -4
-7 -12 1 -7 7 -33 12 -60 12 -38 0 -46 -3 -42 -15 4 -8 1 -15 -6 -15 -7 0 -10
11 -8 28 2 19 -1 26 -12 24 -11 -2 -11 1 3 11 19 15 23 37 7 37 -5 0 -10 7
-10 15 0 9 6 12 15 9 9 -4 15 0 15 10 0 9 -4 16 -10 16 -5 0 -10 5 -10 10 0 6
9 10 20 10 23 0 27 18 5 26 -24 9 -18 19 20 34 19 8 35 20 35 27 0 7 1 13 3
13 2 0 4 -25 5 -55z m-1438 -5 c0 -5 -4 -10 -10 -10 -5 0 -10 5 -10 10 0 6 5
10 10 10 6 0 10 -4 10 -10z m4922 -32 c-7 -7 -12 -8 -12 -2 0 6 3 14 7 17 3 4
9 5 12 2 2 -3 -1 -11 -7 -17z m-3237 -18 c0 -8 -8 -16 -17 -18 -13 -2 -18 3
-18 18 0 15 5 20 18 18 9 -2 17 -10 17 -18z m64 -11 c10 -22 10 -34 3 -41 -12
-12 -15 -7 -26 45 -8 36 6 34 23 -4z m-129 1 c0 -11 -4 -20 -9 -20 -11 0 -22
26 -14 34 12 12 23 5 23 -14z m-45 -11 c0 -7 -8 -15 -17 -17 -18 -3 -25 18
-11 32 10 10 28 1 28 -15z m115 -39 c0 -11 -7 -20 -15 -20 -8 0 -15 9 -15 20
0 11 7 20 15 20 8 0 15 -9 15 -20z m-60 -10 c0 -11 -4 -20 -10 -20 -5 0 -10 9
-10 20 0 11 5 20 10 20 6 0 10 -9 10 -20z m-45 -15 c0 -10 -5 -20 -11 -22 -13
-4 -27 24 -18 38 9 15 29 4 29 -16z m186 3 c1 -7 1 -26 1 -43 0 -23 1 -25 5
-7 5 26 23 20 23 -9 0 -10 5 -19 10 -19 6 0 10 -4 10 -10 0 -5 -13 -10 -30
-10 -16 0 -30 5 -30 11 0 5 -4 7 -10 4 -16 -10 -50 14 -50 35 0 18 5 22 27 19
4 0 10 9 15 20 8 23 27 28 29 9z m97 -50 c23 -136 24 -148 14 -148 -9 0 -29
73 -47 173 -6 29 -4 37 8 37 11 0 18 -18 25 -62z m-343 42 c3 -5 1 -10 -4 -10
-6 0 -11 5 -11 10 0 6 2 10 4 10 3 0 8 -4 11 -10z m305 -36 c0 -8 -4 -12 -10
-9 -5 3 -10 10 -10 16 0 5 5 9 10 9 6 0 10 -7 10 -16z m-390 -28 c0 -2 3 -11
6 -20 9 -23 -22 -20 -46 4 l-20 20 30 0 c17 0 30 -2 30 -4z m3418 -13 c5 -18
-28 -29 -38 -12 -5 7 -6 17 -3 22 7 12 35 5 41 -10z m-3578 -19 c0 -8 -4 -12
-10 -9 -5 3 -10 10 -10 16 0 5 5 9 10 9 6 0 10 -7 10 -16z m70 6 c0 -5 -2 -10
-4 -10 -3 0 -8 5 -11 10 -3 6 -1 10 4 10 6 0 11 -4 11 -10z m360 0 c0 -5 -4
-10 -10 -10 -5 0 -10 5 -10 10 0 6 5 10 10 10 6 0 10 -4 10 -10z m-1613 -22
c-3 -8 -6 -5 -6 6 -1 11 2 17 5 13 3 -3 4 -12 1 -19z m2663 12 c0 -5 -4 -10
-9 -10 -6 0 -13 5 -16 10 -3 6 1 10 9 10 9 0 16 -4 16 -10z m-2133 -47 c-3
-10 -5 -4 -5 12 0 17 2 24 5 18 2 -7 2 -21 0 -30z m2203 28 c0 -6 -4 -13 -10
-16 -5 -3 -10 1 -10 9 0 9 5 16 10 16 6 0 10 -4 10 -9z m50 -16 c0 -8 -4 -15
-10 -15 -5 0 -10 7 -10 15 0 8 5 15 10 15 6 0 10 -7 10 -15z m2613 -25 c29 0
38 -3 28 -9 -11 -7 -7 -10 15 -14 l29 -4 -32 -2 c-18 0 -33 4 -33 9 0 6 -10
10 -23 10 -29 0 -47 18 -39 39 6 13 7 12 10 -6 3 -20 10 -23 45 -23z m-5455
18 c-4 -12 -14 -13 -49 -9 -5 0 -7 6 -4 11 9 15 58 13 53 -2z m1535 -84 c0
-13 3 -21 8 -18 16 10 9 -13 -8 -27 -14 -12 -16 -12 -8 0 6 11 4 13 -8 8 -9
-3 -18 -1 -21 6 -3 8 -8 6 -16 -5 -13 -21 -46 -23 -65 -4 -12 11 -11 17 1 35
14 19 14 21 -5 21 -12 0 -21 7 -21 15 0 8 9 15 20 15 11 0 23 -7 26 -15 9 -22
24 -18 24 6 0 11 5 29 11 41 10 19 12 18 36 -17 14 -21 26 -48 26 -61z m145
77 c3 -8 -1 -12 -9 -9 -7 2 -15 10 -17 17 -3 8 1 12 9 9 7 -2 15 -10 17 -17z
m3378 0 c0 -11 -4 -17 -8 -15 -4 3 -8 12 -8 20 0 8 4 14 8 14 4 0 8 -9 8 -19z
m-3016 -27 c0 -19 5 -55 11 -80 13 -50 12 -53 -22 -56 -17 -2 -23 1 -20 12 2
8 5 47 6 85 3 80 2 75 15 75 6 0 10 -16 10 -36z m-465 -4 c0 -7 -6 -15 -12
-17 -8 -3 -13 4 -13 17 0 13 5 20 13 18 6 -3 12 -11 12 -18z m190 -16 c7 -39
-1 -57 -15 -34 -5 8 -15 15 -21 15 -7 0 -14 6 -17 14 -3 10 0 12 12 8 11 -5
16 -1 16 13 0 34 17 22 25 -16z m3360 26 c4 -6 -7 -10 -27 -10 -25 0 -29 3
-18 10 19 13 37 13 45 0z m-3152 -87 c-15 -31 -29 -49 -31 -41 -2 9 8 33 22
53 15 21 27 47 27 59 1 18 2 18 6 3 3 -10 -8 -44 -24 -74z m-2016 30 c-3 -10
-5 -4 -5 12 0 17 2 24 5 18 2 -7 2 -21 0 -30z m453 17 c0 -11 -4 -20 -9 -20
-14 0 -23 18 -16 30 10 17 25 11 25 -10z m1270 4 c0 -8 -4 -12 -10 -9 -5 3
-10 10 -10 16 0 5 5 9 10 9 6 0 10 -7 10 -16z m1368 9 c-10 -2 -26 -2 -35 0
-10 3 -2 5 17 5 19 0 27 -2 18 -5z m2115 -5 c-17 -8 -29 -8 -45 0 -20 9 -18
11 22 11 40 0 42 -2 23 -11z m-2066 -4 c-3 -3 -12 -4 -19 -1 -8 3 -5 6 6 6 11
1 17 -2 13 -5z m-1707 -24 c0 -5 -4 -10 -10 -10 -5 0 -10 5 -10 10 0 6 5 10
10 10 6 0 10 -4 10 -10z m1005 0 c4 -6 -10 -10 -35 -10 -25 0 -39 4 -35 10 3
6 19 10 35 10 16 0 32 -4 35 -10z m2704 -4 c9 -10 9 -16 1 -21 -6 -4 -9 -13
-6 -21 3 -8 1 -14 -3 -14 -11 0 -21 25 -21 51 0 22 13 25 29 5z m-4979 -26 c0
-13 -37 -13 -45 0 -3 6 -3 15 0 20 7 12 45 -5 45 -20z m2943 23 c-13 -2 -33
-2 -45 0 -13 2 -3 4 22 4 25 0 35 -2 23 -4z m926 0 c0 -5 -4 -17 -9 -28 -8
-18 -9 -17 -9 8 -1 15 4 27 9 27 6 0 10 -3 9 -7z m-2399 -18 c0 -8 -4 -15 -10
-15 -5 0 -10 7 -10 15 0 8 5 15 10 15 6 0 10 -7 10 -15z m-260 -16 c0 -11 -4
-17 -10 -14 -5 3 -10 13 -10 21 0 8 5 14 10 14 6 0 10 -9 10 -21z m4544 -33
c2 -20 -1 -36 -6 -36 -6 0 -7 11 -4 26 5 17 3 23 -4 19 -6 -4 -10 5 -10 21 0
41 21 15 24 -30z m-749 34 c3 -5 1 -10 -4 -10 -6 0 -11 5 -11 10 0 6 2 10 4
10 3 0 8 -4 11 -10z m-4205 -7 c0 -5 -7 -26 -15 -48 -11 -32 -14 -35 -14 -15
-1 35 10 70 20 70 5 0 9 -3 9 -7z m-480 -34 c0 -14 -7 -19 -25 -19 -18 0 -25
5 -25 19 0 13 7 19 25 19 18 0 25 -6 25 -19z m830 11 c0 -5 -4 -10 -10 -10 -5
0 -10 5 -10 10 0 6 5 10 10 10 6 0 10 -4 10 -10z m145 -9 c-3 -6 -11 -8 -17
-5 -6 4 -5 9 3 15 16 10 23 4 14 -10z m-65 -1 c0 -5 -2 -10 -4 -10 -3 0 -8 5
-11 10 -3 6 -1 10 4 10 6 0 11 -4 11 -10z m4466 -7 c-4 -9 -3 -19 2 -22 5 -3
12 -17 15 -31 5 -19 1 -29 -14 -39 -20 -12 -21 -11 -15 31 l7 43 -17 -33 c-26
-50 -28 -31 -2 22 21 44 37 63 24 29z m-4349 1 c-3 -3 -12 -4 -19 -1 -8 3 -5
6 6 6 11 1 17 -2 13 -5z m-950 -10 c-3 -3 -12 -4 -19 -1 -8 3 -5 6 6 6 11 1
17 -2 13 -5z m4633 -8 c0 -8 -5 -18 -10 -21 -6 -4 -8 -11 -5 -16 4 -5 2 -9 -3
-9 -6 0 -12 7 -16 15 -3 9 0 15 9 15 9 0 12 6 9 15 -4 8 -1 15 5 15 6 0 11 -6
11 -14z m-5059 -11 c-1 -15 -24 -12 -29 3 -3 9 2 13 12 10 10 -1 17 -7 17 -13z
m1079 -25 c117 -34 136 -43 132 -60 -1 -6 4 -68 12 -138 16 -141 16 -186 -2
-219 -7 -12 -12 -32 -12 -45 0 -13 -3 -18 -8 -12 -4 6 -14 14 -22 17 -12 4
-11 6 3 6 10 1 17 7 14 14 -2 6 -14 11 -26 10 -14 -2 -21 3 -22 15 -1 19 -4
11 -13 -31 -4 -15 -11 -25 -16 -22 -5 3 -7 0 -4 -8 3 -8 2 -17 -3 -20 -5 -3
-8 -22 -8 -41 1 -29 -1 -33 -12 -25 -15 13 -18 33 -4 24 5 -3 9 9 8 27 0 18 9
75 21 125 25 105 27 136 11 182 -10 27 -13 30 -27 19 -13 -11 -15 -9 -9 17 6
34 -6 65 -17 46 -10 -15 -36 -14 -36 2 0 7 -5 18 -11 24 -9 9 -16 6 -29 -10
-15 -18 -20 -20 -34 -8 -9 8 -15 20 -12 28 3 7 1 13 -5 13 -6 0 -7 5 -4 10 3
6 2 10 -4 10 -5 0 -13 -4 -16 -10 -3 -5 -2 -10 4 -10 6 0 8 -7 5 -15 -4 -9 0
-15 7 -15 9 -1 7 -6 -5 -15 -11 -8 -15 -15 -8 -15 13 0 2 -37 -13 -42 -6 -2
-9 24 -9 63 2 59 -1 68 -20 77 -20 10 -19 11 7 11 22 1 30 8 39 31 7 21 15 29
27 26 9 -2 63 -18 121 -36z m204 14 c3 -8 0 -22 -8 -30 -20 -20 -26 -18 -26 9
0 37 23 51 34 21z m776 -10 c0 -2 -16 -4 -35 -4 -19 0 -35 4 -35 8 0 4 16 6
35 4 19 -2 35 -6 35 -8z m-1264 -30 c-4 -9 -9 -15 -11 -12 -3 3 -3 13 1 22 4
9 9 15 11 12 3 -3 3 -13 -1 -22z m524 6 c0 -5 -4 -10 -10 -10 -5 0 -10 5 -10
10 0 6 5 10 10 10 6 0 10 -4 10 -10z m-940 -15 c0 -8 -4 -15 -10 -15 -5 0 -10
7 -10 15 0 8 5 15 10 15 6 0 10 -7 10 -15z m1398 -232 l0 -203 -42 0 c-30 0
-37 3 -26 10 8 5 23 10 33 10 9 0 17 5 17 10 0 6 -7 10 -15 10 -18 0 -20 16
-4 26 8 4 7 9 -2 14 -13 9 -15 128 -4 255 4 39 6 74 5 79 -1 5 4 12 12 17 23
15 27 -20 26 -228z m502 227 c12 -7 15 -34 15 -134 0 -68 -4 -119 -8 -112 -4
6 -7 -23 -5 -64 1 -41 -1 -81 -5 -87 -5 -9 -2 -13 8 -13 9 0 14 -3 12 -7 -3
-5 -28 -6 -56 -5 -28 2 -48 8 -45 13 3 5 7 41 9 79 4 71 30 218 45 255 16 37
17 50 8 68 -10 19 -1 22 22 7z m-2299 -13 c-1 -12 -15 -9 -19 4 -3 6 1 10 8 8
6 -3 11 -8 11 -12z m5696 -9 c-3 -8 -6 -5 -6 6 -1 11 2 17 5 13 3 -3 4 -12 1
-19z m-4407 -7 c5 -11 10 -31 10 -44 0 -14 9 -44 20 -68 33 -73 21 -89 -14
-19 -18 36 -31 71 -28 77 2 7 -1 26 -6 43 -12 33 1 41 18 11z m1415 -11 c3 -6
-1 -7 -9 -4 -18 7 -21 14 -7 14 6 0 13 -4 16 -10z m2815 -17 c-1 -24 -2 -26
-11 -10 -5 9 -7 22 -4 27 10 17 15 11 15 -17z m220 17 c0 -5 -4 -10 -10 -10
-5 0 -10 5 -10 10 0 6 5 10 10 10 6 0 10 -4 10 -10z m-4267 -23 c3 -8 1 -20
-4 -28 -6 -10 -9 -7 -9 14 0 29 5 35 13 14z m-1483 -38 c0 -5 -7 -9 -15 -9
-15 0 -20 12 -9 23 8 8 24 -1 24 -14z m797 -11 c-3 -7 -5 -2 -5 12 0 14 2 19
5 13 2 -7 2 -19 0 -25z m4941 25 c-10 -2 -26 -2 -35 0 -10 3 -2 5 17 5 19 0
27 -2 18 -5z m-268 -48 c0 -8 -7 -15 -15 -15 -9 0 -12 6 -9 15 4 8 10 15 15
15 5 0 9 -7 9 -15z m-4935 -85 c3 -5 -3 -10 -14 -10 -12 0 -21 5 -21 10 0 6 6
10 14 10 8 0 18 -4 21 -10z m2134 -16 c13 -12 -8 -10 -29 2 l-25 15 25 -7 c14
-3 27 -8 29 -10z m-48 -27 c-10 -9 -11 -8 -5 6 3 10 9 15 12 12 3 -3 0 -11 -7
-18z m-2064 -63 c-3 -3 -12 -4 -19 -1 -8 3 -5 6 6 6 11 1 17 -2 13 -5z m-690
-226 c-3 -7 -5 -2 -5 12 0 14 2 19 5 13 2 -7 2 -19 0 -25z m4167 -23 c-4 -8
-16 -15 -28 -15 -21 1 -21 1 -2 15 25 19 37 19 30 0z m-1140 -20 c20 -9 42
-12 49 -8 7 4 -2 -11 -19 -32 -45 -58 -93 -156 -114 -239 -10 -39 -30 -100
-44 -135 -32 -81 -60 -211 -81 -376 -27 -221 -37 -255 -81 -261 -10 -2 -12 5
-7 24 6 25 5 26 -10 10 -9 -9 -21 -35 -26 -58 -5 -23 -11 -43 -13 -44 -1 -1
-20 -12 -40 -24 -36 -20 -38 -20 -38 -3 0 11 16 90 36 178 20 87 44 194 54
238 71 313 182 612 263 710 15 19 30 35 32 35 1 0 19 -7 39 -15z m859 -9 c3 4
34 -5 69 -19 54 -21 74 -24 141 -19 73 4 79 3 75 -14 -2 -10 -14 -21 -28 -24
-23 -6 -23 -7 9 -12 38 -6 101 10 101 25 0 5 7 7 15 4 8 -4 17 -3 19 2 4 7 14
7 58 2 11 -1 -3 -34 -23 -53 -17 -17 -28 -93 -31 -216 -1 -36 -7 -66 -13 -70
-7 -4 -25 -27 -40 -52 -15 -25 -31 -47 -34 -50 -3 -3 -18 -30 -32 -60 -86
-178 -156 -310 -166 -310 -2 0 -1 5 2 10 4 6 -1 22 -10 36 -9 13 -13 29 -10
34 3 5 1 11 -5 15 -5 3 -10 16 -10 29 0 12 -5 27 -11 33 -6 6 -12 27 -14 47
-2 19 -11 46 -19 58 -9 12 -16 33 -16 46 0 13 -10 38 -22 55 -19 26 -23 46
-24 122 -1 49 2 95 5 100 10 17 8 60 -3 67 -7 5 -7 8 2 8 8 0 12 12 10 35 -1
19 -6 35 -10 35 -4 0 -8 5 -8 11 0 5 4 8 9 5 5 -4 3 18 -5 46 -7 29 -14 64
-14 78 1 23 2 23 14 8 7 -10 16 -15 19 -12z m-62 -29 c-10 -9 -11 -8 -5 6 3
10 9 15 12 12 3 -3 0 -11 -7 -18z m0 -50 c-10 -9 -11 -8 -5 6 3 10 9 15 12 12
3 -3 0 -11 -7 -18z m-661 -17 c-6 -11 -13 -20 -16 -20 -2 0 0 9 6 20 6 11 13
20 16 20 2 0 0 -9 -6 -20z m131 -37 c-11 -21 -20 -35 -21 -31 0 12 33 78 38
74 2 -2 -6 -21 -17 -43z m52 -38 c-3 -9 -8 -14 -10 -11 -3 3 -2 9 2 15 9 16
15 13 8 -4z m-240 -25 c-3 -11 -10 -23 -16 -27 -5 -3 -8 -2 -5 3 3 5 8 17 11
27 9 24 16 22 10 -3z m278 -23 c-10 -9 -11 -8 -5 6 3 10 9 15 12 12 3 -3 0
-11 -7 -18z m-138 -12 c-3 -9 -8 -14 -10 -11 -3 3 -2 9 2 15 9 16 15 13 8 -4z
m-265 -25 c-7 -10 -14 -18 -15 -16 -6 6 9 36 18 36 5 0 4 -9 -3 -20z m159 -12
c-3 -8 -6 -5 -6 6 -1 11 2 17 5 13 3 -3 4 -12 1 -19z m273 -15 c-11 -17 -11
-17 -6 0 3 10 6 24 7 30 0 9 2 9 5 0 3 -7 0 -20 -6 -30z m-359 -20 c-11 -21
-20 -35 -21 -31 0 12 33 78 38 74 2 -2 -6 -21 -17 -43z m158 -5 c-22 -56 -37
-79 -24 -39 12 39 35 91 40 91 3 0 -5 -24 -16 -52z m79 27 c-6 -14 -13 -23
-15 -21 -5 5 15 46 22 46 3 0 -1 -11 -7 -25z m43 -42 c-8 -16 -32 -83 -57
-162 -2 -8 -7 -12 -10 -9 -2 3 5 32 16 64 31 85 53 135 57 130 3 -2 0 -13 -6
-23z m1617 -8 c-6 -14 -13 -23 -15 -21 -5 5 15 46 22 46 3 0 -1 -11 -7 -25z
m-1700 -37 c-21 -56 -35 -80 -23 -38 11 39 33 90 39 90 2 0 -5 -24 -16 -52z
m1798 15 c-8 -15 -15 -25 -16 -21 0 12 23 58 27 54 3 -2 -2 -17 -11 -33z
m-2070 -20 c-8 -15 -15 -25 -16 -21 0 12 23 58 27 54 3 -2 -2 -17 -11 -33z
m99 1 c-8 -16 -15 -23 -15 -16 0 17 20 55 26 49 2 -2 -2 -17 -11 -33z m2225
16 c-6 -11 -13 -20 -16 -20 -2 0 0 9 6 20 6 11 13 20 16 20 2 0 0 -9 -6 -20z
m-1867 -20 c-3 -12 -8 -19 -11 -16 -5 6 5 36 12 36 2 0 2 -9 -1 -20z m1490 -5
c-3 -9 -8 -14 -10 -11 -3 3 -2 9 2 15 9 16 15 13 8 -4z m-1259 -21 c3 -8 2
-12 -4 -9 -6 3 -10 10 -10 16 0 14 7 11 14 -7z m-660 -28 c-3 -15 -8 -25 -11
-23 -2 3 -1 17 3 31 3 15 8 25 11 23 2 -3 1 -17 -3 -31z m357 3 c-5 -13 -10
-19 -10 -12 -1 15 10 45 15 40 3 -2 0 -15 -5 -28z m-194 -16 c-3 -10 -5 -4 -5
12 0 17 2 24 5 18 2 -7 2 -21 0 -30z m-110 -5 c-3 -8 -6 -5 -6 6 -1 11 2 17 5
13 3 -3 4 -12 1 -19z m160 -20 c-3 -7 -5 -2 -5 12 0 14 2 19 5 13 2 -7 2 -19
0 -25z m1596 17 c-3 -9 -8 -14 -10 -11 -3 3 -2 9 2 15 9 16 15 13 8 -4z m-514
-28 c-2 -1 -13 -9 -24 -17 -19 -14 -19 -14 -6 3 7 9 18 17 24 17 6 0 8 -1 6
-3z m-1372 -29 c-3 -8 -6 -5 -6 6 -1 11 2 17 5 13 3 -3 4 -12 1 -19z m60 0
c-3 -8 -6 -5 -6 6 -1 11 2 17 5 13 3 -3 4 -12 1 -19z m220 -15 c-3 -10 -5 -4
-5 12 0 17 2 24 5 18 2 -7 2 -21 0 -30z m1429 -14 c-9 -19 -15 -29 -16 -22 0
15 22 64 27 60 2 -2 -3 -19 -11 -38z m140 4 c-8 -15 -15 -25 -16 -21 0 12 23
58 27 54 3 -2 -2 -17 -11 -33z m-1112 11 c3 -8 2 -12 -4 -9 -6 3 -10 10 -10
16 0 14 7 11 14 -7z m1193 -6 c-3 -8 -6 -5 -6 6 -1 11 2 17 5 13 3 -3 4 -12 1
-19z m-1600 -10 c-3 -8 -6 -5 -6 6 -1 11 2 17 5 13 3 -3 4 -12 1 -19z m188 -8
c-4 -12 -9 -19 -12 -17 -3 3 -2 15 2 27 4 12 9 19 12 17 3 -3 2 -15 -2 -27z
m-298 -17 c-3 -10 -5 -4 -5 12 0 17 2 24 5 18 2 -7 2 -21 0 -30z m170 5 c-3
-8 -6 -5 -6 6 -1 11 2 17 5 13 3 -3 4 -12 1 -19z m-120 -20 c-3 -8 -6 -5 -6 6
-1 11 2 17 5 13 3 -3 4 -12 1 -19z m1804 -5 c-12 -20 -14 -14 -5 12 4 9 9 14
11 11 3 -2 0 -13 -6 -23z m-1754 -5 c-3 -8 -6 -5 -6 6 -1 11 2 17 5 13 3 -3 4
-12 1 -19z m1876 7 c-3 -9 -8 -14 -10 -11 -3 3 -2 9 2 15 9 16 15 13 8 -4z
m-511 -17 c-7 -7 -12 -8 -12 -2 0 6 3 14 7 17 3 4 9 5 12 2 2 -3 -1 -11 -7
-17z m-1425 -20 c-3 -8 -6 -5 -6 6 -1 11 2 17 5 13 3 -3 4 -12 1 -19z m2600 0
c-3 -8 -6 -5 -6 6 -1 11 2 17 5 13 3 -3 4 -12 1 -19z m-2650 -10 c-3 -8 -6 -5
-6 6 -1 11 2 17 5 13 3 -3 4 -12 1 -19z m347 -12 c-3 -15 -8 -25 -11 -23 -2 3
-1 17 3 31 3 15 8 25 11 23 2 -3 1 -17 -3 -31z m1506 30 c0 -3 -4 -8 -10 -11
-5 -3 -10 -1 -10 4 0 6 5 11 10 11 6 0 10 -2 10 -4z m-1753 -38 c-3 -7 -5 -2
-5 12 0 14 2 19 5 13 2 -7 2 -19 0 -25z m-270 -10 c-3 -7 -5 -2 -5 12 0 14 2
19 5 13 2 -7 2 -19 0 -25z m330 10 c-3 -8 -6 -5 -6 6 -1 11 2 17 5 13 3 -3 4
-12 1 -19z m1427 -47 c-9 -29 -18 -51 -20 -48 -2 2 3 27 12 56 8 29 17 51 19
49 2 -2 -3 -28 -11 -57z m237 32 c-12 -20 -14 -14 -5 12 4 9 9 14 11 11 3 -2
0 -13 -6 -23z m-1790 -64 c-5 -48 -9 -60 -10 -34 -1 42 9 118 15 112 2 -2 0
-37 -5 -78z m1426 59 c-3 -8 -6 -5 -6 6 -1 11 2 17 5 13 3 -3 4 -12 1 -19z
m-1190 -20 c-3 -7 -5 -2 -5 12 0 14 2 19 5 13 2 -7 2 -19 0 -25z m-180 0 c-3
-8 -6 -5 -6 6 -1 11 2 17 5 13 3 -3 4 -12 1 -19z m963 19 c0 -2 -19 -21 -42
-42 -23 -22 -36 -31 -28 -20 25 33 70 73 70 62z m-1163 -44 c-3 -10 -5 -4 -5
12 0 17 2 24 5 18 2 -7 2 -21 0 -30z m100 15 c-3 -8 -6 -5 -6 6 -1 11 2 17 5
13 3 -3 4 -12 1 -19z m334 -14 c-5 -16 -10 -21 -10 -12 -1 18 10 51 15 45 2
-1 -1 -16 -5 -33z m-114 -26 c-3 -8 -6 -5 -6 6 -1 11 2 17 5 13 3 -3 4 -12 1
-19z m50 0 c-3 -8 -6 -5 -6 6 -1 11 2 17 5 13 3 -3 4 -12 1 -19z m-120 -20
c-3 -7 -5 -2 -5 12 0 14 2 19 5 13 2 -7 2 -19 0 -25z m1578 -18 c-7 -25 -14
-38 -14 -29 -1 18 20 82 25 77 2 -2 -3 -24 -11 -48z m-1727 -90 c0 -32 -1 -31
-9 10 -4 25 -7 63 -7 85 1 39 1 39 8 -10 5 -27 8 -66 8 -85z m319 88 c-3 -7
-5 -2 -5 12 0 14 2 19 5 13 2 -7 2 -19 0 -25z m-430 -35 c-3 -10 -5 -4 -5 12
0 17 2 24 5 18 2 -7 2 -21 0 -30z m200 -15 c-2 -13 -4 -5 -4 17 -1 22 1 32 4
23 2 -10 2 -28 0 -40z m170 30 c-3 -8 -6 -5 -6 6 -1 11 2 17 5 13 3 -3 4 -12
1 -19z m-470 -20 c-3 -8 -6 -5 -6 6 -1 11 2 17 5 13 3 -3 4 -12 1 -19z m350
-15 c-3 -10 -5 -4 -5 12 0 17 2 24 5 18 2 -7 2 -21 0 -30z m863 34 c0 -2 -10
-12 -22 -23 l-23 -19 19 23 c18 21 26 27 26 19z m557 -19 c-3 -8 -6 -5 -6 6
-1 11 2 17 5 13 3 -3 4 -12 1 -19z m-1106 -30 c-4 -35 -6 -38 -9 -15 -3 26 3
57 10 57 2 0 1 -19 -1 -42z m1326 20 c-3 -8 -6 -5 -6 6 -1 11 2 17 5 13 3 -3
4 -12 1 -19z m-1960 -20 c-3 -8 -6 -5 -6 6 -1 11 2 17 5 13 3 -3 4 -12 1 -19z
m1730 -10 c-3 -8 -6 -5 -6 6 -1 11 2 17 5 13 3 -3 4 -12 1 -19z m-1670 -35
c-3 -10 -5 -4 -5 12 0 17 2 24 5 18 2 -7 2 -21 0 -30z m260 -25 c-2 -13 -4 -3
-4 22 0 25 2 35 4 23 2 -13 2 -33 0 -45z m-90 20 c-3 -7 -5 -2 -5 12 0 14 2
19 5 13 2 -7 2 -19 0 -25z m40 -90 c-2 -24 -4 -5 -4 42 0 47 2 66 4 43 2 -24
2 -62 0 -85z m110 80 c-3 -7 -5 -2 -5 12 0 14 2 19 5 13 2 -7 2 -19 0 -25z
m1570 -15 c-3 -10 -5 -2 -5 17 0 19 2 27 5 18 2 -10 2 -26 0 -35z m-1803 -138
l5 -70 -13 85 c-8 47 -14 103 -14 125 1 35 2 33 8 -15 5 -30 11 -86 14 -125z
m1873 138 c-3 -10 -5 -4 -5 12 0 17 2 24 5 18 2 -7 2 -21 0 -30z m-1830 -30
c-3 -10 -5 -2 -5 17 0 19 2 27 5 18 2 -10 2 -26 0 -35z m-210 -120 c-2 -32 -3
-8 -3 52 0 61 1 87 3 58 2 -29 2 -78 0 -110z m950 115 c-3 -7 -5 -2 -5 12 0
14 2 19 5 13 2 -7 2 -19 0 -25z m1250 -5 c-3 -10 -5 -4 -5 12 0 17 2 24 5 18
2 -7 2 -21 0 -30z m-470 -15 c-3 -7 -5 -2 -5 12 0 14 2 19 5 13 2 -7 2 -19 0
-25z m-60 0 c-3 -8 -6 -5 -6 6 -1 11 2 17 5 13 3 -3 4 -12 1 -19z m750 0 c-3
-8 -6 -5 -6 6 -1 11 2 17 5 13 3 -3 4 -12 1 -19z m-2030 -10 c-3 -8 -6 -5 -6
6 -1 11 2 17 5 13 3 -3 4 -12 1 -19z m-170 -60 c-2 -13 -4 -3 -4 22 0 25 2 35
4 23 2 -13 2 -33 0 -45z m1970 40 c-3 -8 -6 -5 -6 6 -1 11 2 17 5 13 3 -3 4
-12 1 -19z m-2069 -93 c0 -22 -3 -19 -9 15 -10 60 -9 108 2 55 4 -22 8 -53 7
-70z m309 73 c-3 -7 -5 -2 -5 12 0 14 2 19 5 13 2 -7 2 -19 0 -25z m60 10 c-3
-8 -6 -5 -6 6 -1 11 2 17 5 13 3 -3 4 -12 1 -19z m-230 -20 c-3 -8 -6 -5 -6 6
-1 11 2 17 5 13 3 -3 4 -12 1 -19z m440 -40 c-2 -13 -4 -3 -4 22 0 25 2 35 4
23 2 -13 2 -33 0 -45z m1260 40 c-3 -8 -6 -5 -6 6 -1 11 2 17 5 13 3 -3 4 -12
1 -19z m252 -46 c1 -7 -3 -10 -9 -7 -5 3 -10 18 -9 33 0 24 1 25 9 7 5 -11 9
-26 9 -33z m-2262 -24 c-2 -13 -4 -5 -4 17 -1 22 1 32 4 23 2 -10 2 -28 0 -40z
m390 20 c-3 -8 -6 -5 -6 6 -1 11 2 17 5 13 3 -3 4 -12 1 -19z m80 -25 c-3 -10
-5 -4 -5 12 0 17 2 24 5 18 2 -7 2 -21 0 -30z m-150 -15 c-3 -8 -6 -5 -6 6 -1
11 2 17 5 13 3 -3 4 -12 1 -19z m-40 -20 c-3 -7 -5 -2 -5 12 0 14 2 19 5 13 2
-7 2 -19 0 -25z m240 10 c-3 -8 -6 -5 -6 6 -1 11 2 17 5 13 3 -3 4 -12 1 -19z
m1650 -20 c-3 -7 -5 -2 -5 12 0 14 2 19 5 13 2 -7 2 -19 0 -25z m210 10 c-3
-8 -6 -5 -6 6 -1 11 2 17 5 13 3 -3 4 -12 1 -19z m-2577 2 c0 -5 -7 -10 -15
-10 -10 0 -12 -6 -8 -17 6 -15 4 -16 -9 -5 -11 8 -18 9 -22 3 -4 -6 2 -16 14
-23 11 -7 20 -20 20 -28 0 -9 -11 -3 -32 18 -31 31 -32 32 -13 46 11 8 23 12
27 10 4 -2 9 0 13 6 8 13 25 13 25 0z m147 -22 c-3 -7 -5 -2 -5 12 0 14 2 19
5 13 2 -7 2 -19 0 -25z m40 10 c-3 -8 -6 -5 -6 6 -1 11 2 17 5 13 3 -3 4 -12
1 -19z m190 -15 c-3 -10 -5 -4 -5 12 0 17 2 24 5 18 2 -7 2 -21 0 -30z m71
-113 c0 -14 -6 4 -13 40 -8 36 -14 76 -13 90 0 14 6 -4 13 -40 8 -36 14 -76
13 -90z m-403 130 c-3 -5 -10 -10 -16 -10 -5 0 -9 5 -9 10 0 6 7 10 16 10 8 0
12 -4 9 -10z m612 -57 c-2 -16 -4 -5 -4 22 0 28 2 40 4 28 2 -13 2 -35 0 -50z
m-423 -2 c-4 -28 -9 -50 -11 -47 -3 3 -2 28 2 56 4 28 9 49 12 47 2 -3 1 -28
-3 -56z m763 12 c-3 -10 -5 -2 -5 17 0 19 2 27 5 18 2 -10 2 -26 0 -35z m-700
5 c-3 -7 -5 -2 -5 12 0 14 2 19 5 13 2 -7 2 -19 0 -25z m410 -5 c-3 -10 -5 -4
-5 12 0 17 2 24 5 18 2 -7 2 -21 0 -30z m-220 -20 c-3 -10 -5 -2 -5 17 0 19 2
27 5 18 2 -10 2 -26 0 -35z m-100 -10 c-3 -10 -5 -4 -5 12 0 17 2 24 5 18 2
-7 2 -21 0 -30z m-250 5 c-3 -8 -6 -5 -6 6 -1 11 2 17 5 13 3 -3 4 -12 1 -19z
m1673 2 c0 -11 -2 -20 -4 -20 -2 0 -6 9 -9 20 -3 11 -1 20 4 20 5 0 9 -9 9
-20z m-1640 -37 c-11 -17 -11 -17 -6 0 3 10 7 26 7 35 1 15 2 15 6 0 2 -10 -1
-25 -7 -35z m110 -10 c-11 -17 -11 -17 -6 0 3 10 7 28 7 40 2 22 2 22 6 0 2
-12 -1 -30 -7 -40z m817 -25 c-2 -18 -4 -6 -4 27 0 33 2 48 4 33 2 -15 2 -42
0 -60z m760 45 c-3 -10 -5 -4 -5 12 0 17 2 24 5 18 2 -7 2 -21 0 -30z m-1240
5 c-3 -8 -6 -5 -6 6 -1 11 2 17 5 13 3 -3 4 -12 1 -19z m430 -30 c-2 -13 -4
-5 -4 17 -1 22 1 32 4 23 2 -10 2 -28 0 -40z m580 30 c-3 -8 -6 -5 -6 6 -1 11
2 17 5 13 3 -3 4 -12 1 -19z m-930 -35 c-3 -10 -5 -4 -5 12 0 17 2 24 5 18 2
-7 2 -21 0 -30z m-300 5 c-3 -8 -6 -5 -6 6 -1 11 2 17 5 13 3 -3 4 -12 1 -19z
m1280 0 c-3 -8 -6 -5 -6 6 -1 11 2 17 5 13 3 -3 4 -12 1 -19z m311 -9 c-3 -8
-7 -3 -11 10 -4 17 -3 21 5 13 5 -5 8 -16 6 -23z m-1491 -31 c-2 -13 -4 -5 -4
17 -1 22 1 32 4 23 2 -10 2 -28 0 -40z m840 15 c-3 -10 -5 -4 -5 12 0 17 2 24
5 18 2 -7 2 -21 0 -30z m-1120 5 c-3 -8 -6 -5 -6 6 -1 11 2 17 5 13 3 -3 4
-12 1 -19z m1400 -10 c-3 -7 -5 -2 -5 12 0 14 2 19 5 13 2 -7 2 -19 0 -25z
m150 -5 c-3 -10 -5 -4 -5 12 0 17 2 24 5 18 2 -7 2 -21 0 -30z m150 15 c-3 -8
-6 -5 -6 6 -1 11 2 17 5 13 3 -3 4 -12 1 -19z m160 -10 c-3 -7 -5 -2 -5 12 0
14 2 19 5 13 2 -7 2 -19 0 -25z m-570 0 c-3 -8 -6 -5 -6 6 -1 11 2 17 5 13 3
-3 4 -12 1 -19z m-1236 -15 c-12 -20 -14 -14 -5 12 4 9 9 14 11 11 3 -2 0 -13
-6 -23z m346 -10 c-3 -10 -5 -4 -5 12 0 17 2 24 5 18 2 -7 2 -21 0 -30z m1250
-10 c-3 -10 -5 -2 -5 17 0 19 2 27 5 18 2 -10 2 -26 0 -35z m-1460 15 c-3 -8
-6 -5 -6 6 -1 11 2 17 5 13 3 -3 4 -12 1 -19z m1410 -60 c-2 -18 -4 -6 -4 27
0 33 2 48 4 33 2 -15 2 -42 0 -60z m-1240 50 c-3 -8 -6 -5 -6 6 -1 11 2 17 5
13 3 -3 4 -12 1 -19z m1350 -10 c-3 -7 -5 -2 -5 12 0 14 2 19 5 13 2 -7 2 -19
0 -25z m-1470 -20 c-3 -7 -5 -2 -5 12 0 14 2 19 5 13 2 -7 2 -19 0 -25z m873
-25 c-11 -17 -11 -17 -6 0 3 10 7 26 7 35 1 15 2 15 6 0 2 -10 -1 -25 -7 -35z
m-1213 5 c-3 -7 -5 -2 -5 12 0 14 2 19 5 13 2 -7 2 -19 0 -25z m40 -5 c-3 -10
-5 -4 -5 12 0 17 2 24 5 18 2 -7 2 -21 0 -30z m50 0 c-3 -10 -5 -4 -5 12 0 17
2 24 5 18 2 -7 2 -21 0 -30z m1400 0 c-3 -10 -5 -4 -5 12 0 17 2 24 5 18 2 -7
2 -21 0 -30z m160 5 c-3 -7 -5 -2 -5 12 0 14 2 19 5 13 2 -7 2 -19 0 -25z
m-1510 -45 c-2 -16 -4 -5 -4 22 0 28 2 40 4 28 2 -13 2 -35 0 -50z m1620 -15
c-2 -18 -4 -6 -4 27 0 33 2 48 4 33 2 -15 2 -42 0 -60z m-3797 68 c0 -3 -4 -8
-10 -11 -5 -3 -10 -1 -10 4 0 6 5 11 10 11 6 0 10 -2 10 -4z m2547 -18 c-3 -8
-6 -5 -6 6 -1 11 2 17 5 13 3 -3 4 -12 1 -19z m1030 0 c-3 -8 -6 -5 -6 6 -1
11 2 17 5 13 3 -3 4 -12 1 -19z m-3651 3 c-7 -11 -165 -36 -173 -27 -11 10 1
15 58 25 73 12 121 13 115 2z m2593 -50 c1 -35 -5 -22 -12 24 -5 28 -4 34 3
20 5 -11 9 -31 9 -44z m1338 -13 c-2 -13 -4 -3 -4 22 0 25 2 35 4 23 2 -13 2
-33 0 -45z m-1790 -5 c-3 -10 -5 -2 -5 17 0 19 2 27 5 18 2 -10 2 -26 0 -35z
m1180 25 c-3 -8 -6 -5 -6 6 -1 11 2 17 5 13 3 -3 4 -12 1 -19z m-1130 -20 c-3
-7 -5 -2 -5 12 0 14 2 19 5 13 2 -7 2 -19 0 -25z m830 0 c-3 -7 -5 -2 -5 12 0
14 2 19 5 13 2 -7 2 -19 0 -25z m-920 0 c-3 -8 -6 -5 -6 6 -1 11 2 17 5 13 3
-3 4 -12 1 -19z m-2463 3 c6 -9 -41 -21 -83 -21 l-26 1 25 14 c28 16 76 20 84
6z m4113 -123 c-2 -24 -4 -5 -4 42 0 47 2 66 4 43 2 -24 2 -62 0 -85z m60 80
c-3 -7 -5 -2 -5 12 0 14 2 19 5 13 2 -7 2 -19 0 -25z m215 -13 c3 -14 2 -25
-2 -25 -4 0 -10 11 -12 25 -3 14 -2 25 2 25 4 0 10 -11 12 -25z m-955 -47 c-2
-13 -4 -3 -4 22 0 25 2 35 4 23 2 -13 2 -33 0 -45z m160 40 c-3 -8 -6 -5 -6 6
-1 11 2 17 5 13 3 -3 4 -12 1 -19z m250 -45 c-2 -16 -4 -5 -4 22 0 28 2 40 4
28 2 -13 2 -35 0 -50z m471 2 c0 -16 -2 -15 -8 5 -11 34 -11 60 0 35 5 -11 8
-29 8 -40z m-1821 23 c-3 -8 -6 -5 -6 6 -1 11 2 17 5 13 3 -3 4 -12 1 -19z
m1980 0 c-3 -8 -6 -5 -6 6 -1 11 2 17 5 13 3 -3 4 -12 1 -19z m-510 -25 c-3
-10 -5 -4 -5 12 0 17 2 24 5 18 2 -7 2 -21 0 -30z m280 0 c-3 -10 -5 -4 -5 12
0 17 2 24 5 18 2 -7 2 -21 0 -30z m-70 -5 c-3 -7 -5 -2 -5 12 0 14 2 19 5 13
2 -7 2 -19 0 -25z m-110 -35 c-3 -10 -5 -2 -5 17 0 19 2 27 5 18 2 -10 2 -26
0 -35z m428 38 c3 -5 1 -12 -5 -16 -5 -3 -10 1 -10 9 0 18 6 21 15 7z m-88
-48 c-3 -10 -5 -2 -5 17 0 19 2 27 5 18 2 -10 2 -26 0 -35z m-1920 5 c-3 -7
-5 -2 -5 12 0 14 2 19 5 13 2 -7 2 -19 0 -25z m-40 0 c-3 -8 -6 -5 -6 6 -1 11
2 17 5 13 3 -3 4 -12 1 -19z m1821 -48 c0 -9 -3 -7 -8 5 -5 11 -8 29 -8 40 0
16 2 15 8 -5 4 -14 8 -32 8 -40z m87 -83 c15 -76 25 -141 22 -143 -4 -4 -11
29 -41 179 -16 76 -20 115 -12 106 2 -2 16 -66 31 -142z m-168 96 c-3 -10 -5
-4 -5 12 0 17 2 24 5 18 2 -7 2 -21 0 -30z m-410 5 c-3 -8 -6 -5 -6 6 -1 11 2
17 5 13 3 -3 4 -12 1 -19z m-640 -35 c-3 -10 -5 -2 -5 17 0 19 2 27 5 18 2
-10 2 -26 0 -35z m880 10 c-3 -10 -5 -4 -5 12 0 17 2 24 5 18 2 -7 2 -21 0
-30z m-380 -40 c-3 -10 -5 -2 -5 17 0 19 2 27 5 18 2 -10 2 -26 0 -35z m430
10 c-3 -10 -5 -4 -5 12 0 17 2 24 5 18 2 -7 2 -21 0 -30z m-1620 5 c-3 -8 -6
-5 -6 6 -1 11 2 17 5 13 3 -3 4 -12 1 -19z m1977 6 c3 -8 2 -12 -4 -9 -6 3
-10 10 -10 16 0 14 7 11 14 -7z m-221 -54 c3 -34 2 -47 -3 -35 -8 19 -14 103
-6 94 2 -2 6 -29 9 -59z m-76 -12 c-2 -13 -4 -3 -4 22 0 25 2 35 4 23 2 -13 2
-33 0 -45z m-180 20 c-3 -7 -5 -2 -5 12 0 14 2 19 5 13 2 -7 2 -19 0 -25z
m333 6 c0 -8 -4 -12 -10 -9 -5 3 -10 13 -10 21 0 8 5 12 10 9 6 -3 10 -13 10
-21z m-263 -6 c-3 -8 -6 -5 -6 6 -1 11 2 17 5 13 3 -3 4 -12 1 -19z m423 -23
c0 -5 -5 -3 -10 5 -5 8 -10 20 -10 25 0 6 5 3 10 -5 5 -8 10 -19 10 -25z
m-1993 3 c-3 -8 -6 -5 -6 6 -1 11 2 17 5 13 3 -3 4 -12 1 -19z m50 -20 c-3 -7
-5 -2 -5 12 0 14 2 19 5 13 2 -7 2 -19 0 -25z m1450 -15 c-3 -10 -5 -4 -5 12
0 17 2 24 5 18 2 -7 2 -21 0 -30z m337 2 c5 -22 4 -26 -4 -15 -5 8 -10 24 -10
34 0 26 6 18 14 -19z m-407 -7 c-3 -8 -6 -5 -6 6 -1 11 2 17 5 13 3 -3 4 -12
1 -19z m200 -95 c-2 -21 -4 -6 -4 32 0 39 2 55 4 38 2 -18 2 -50 0 -70z m60
75 c-3 -8 -6 -5 -6 6 -1 11 2 17 5 13 3 -3 4 -12 1 -19z m310 -15 c-3 -10 -5
-4 -5 12 0 17 2 24 5 18 2 -7 2 -21 0 -30z m-1260 -20 c-3 -10 -5 -2 -5 17 0
19 2 27 5 18 2 -10 2 -26 0 -35z m1363 0 c0 -32 -5 -28 -14 10 -4 19 -3 26 4
22 5 -3 10 -18 10 -32z m-263 -5 c-3 -7 -5 -2 -5 12 0 14 2 19 5 13 2 -7 2
-19 0 -25z m-67 -35 c0 -25 -2 -44 -4 -42 -8 10 -13 89 -5 89 5 0 9 -21 9 -47z
m250 21 c0 -8 -4 -12 -10 -9 -5 3 -10 10 -10 16 0 5 5 9 10 9 6 0 10 -7 10
-16z m517 -16 c-3 -7 -5 -2 -5 12 0 14 2 19 5 13 2 -7 2 -19 0 -25z m-1270
-10 c-3 -8 -6 -5 -6 6 -1 11 2 17 5 13 3 -3 4 -12 1 -19z m580 -15 c-3 -10 -5
-4 -5 12 0 17 2 24 5 18 2 -7 2 -21 0 -30z m-150 -25 c-2 -13 -4 -5 -4 17 -1
22 1 32 4 23 2 -10 2 -28 0 -40z m160 -35 c-3 -10 -5 -4 -5 12 0 17 2 24 5 18
2 -7 2 -21 0 -30z m-330 5 c-3 -8 -6 -5 -6 6 -1 11 2 17 5 13 3 -3 4 -12 1
-19z m-200 -20 c-3 -8 -6 -5 -6 6 -1 11 2 17 5 13 3 -3 4 -12 1 -19z m310 -30
c-3 -7 -5 -2 -5 12 0 14 2 19 5 13 2 -7 2 -19 0 -25z m-60 -30 c-3 -7 -5 -2
-5 12 0 14 2 19 5 13 2 -7 2 -19 0 -25z m141 -48 l0 -35 -8 30 c-4 17 -8 44
-8 60 0 29 0 29 8 5 4 -14 8 -41 8 -60z m75 40 c3 -11 1 -18 -4 -14 -5 3 -9
12 -9 20 0 20 7 17 13 -6z m10 -100 c4 -30 3 -38 -3 -25 -8 19 -14 83 -6 74 2
-2 6 -24 9 -49z m684 -17 c-2 -16 -4 -5 -4 22 0 28 2 40 4 28 2 -13 2 -35 0
-50z m-610 5 c-3 -8 -6 -5 -6 6 -1 11 2 17 5 13 3 -3 4 -12 1 -19z m690 -20
c-3 -8 -6 -5 -6 6 -1 11 2 17 5 13 3 -3 4 -12 1 -19z m-70 -70 c-3 -8 -6 -5
-6 6 -1 11 2 17 5 13 3 -3 4 -12 1 -19z m-2009 -326 c2 -7 -3 -12 -12 -12 -9
0 -16 7 -16 16 0 17 22 14 28 -4z m9 -358 c-3 -3 -12 -4 -19 -1 -8 3 -5 6 6 6
11 1 17 -2 13 -5z"/>
<path d="M3640 5050 c0 -5 5 -10 11 -10 5 0 7 5 4 10 -3 6 -8 10 -11 10 -2 0
-4 -4 -4 -10z"/>
<path d="M3560 4467 c-3 -3 -22 -8 -42 -10 -45 -4 -68 -22 -68 -52 0 -31 11
-38 31 -19 26 24 107 40 174 34 l59 -5 -71 -23 c-87 -28 -110 -46 -119 -94 -7
-45 7 -49 58 -18 18 11 49 20 69 20 19 0 40 5 45 10 7 7 16 6 29 -4 18 -13 18
-14 1 -41 -11 -17 -13 -24 -5 -19 8 5 33 14 57 20 36 9 44 9 52 -5 7 -12 9
-12 10 -2 0 10 3 11 13 2 10 -8 17 -7 25 1 19 19 14 56 -8 68 -26 14 -26 33 0
25 16 -5 19 -3 13 12 -28 76 -68 95 -208 101 -60 2 -112 2 -115 -1z m245 -108
c4 -5 -5 -9 -19 -9 -14 0 -26 4 -26 8 0 11 39 12 45 1z m-148 -24 c10 -24 9
-25 -17 -25 -34 0 -47 15 -30 35 18 22 33 18 47 -10z"/>
<path d="M2886 4384 c-7 -19 3 -64 15 -64 14 0 11 28 -3 33 -10 3 -10 9 0 26
7 11 8 21 3 21 -5 0 -12 -7 -15 -16z"/>
<path d="M4330 4389 c0 -5 5 -7 10 -4 6 3 10 8 10 11 0 2 -4 4 -10 4 -5 0 -10
-5 -10 -11z"/>
<path d="M2577 4360 c3 -11 9 -17 14 -14 14 8 10 34 -5 34 -9 0 -12 -7 -9 -20z"/>
<path d="M3330 4361 c0 -5 5 -13 10 -16 6 -3 10 -2 10 4 0 5 -4 13 -10 16 -5
3 -10 2 -10 -4z"/>
<path d="M2617 4343 c-4 -3 -7 -11 -7 -17 0 -6 5 -5 12 2 6 6 9 14 7 17 -3 3
-9 2 -12 -2z"/>
<path d="M2452 4297 c-5 -6 -7 -20 -3 -29 5 -15 8 -13 18 7 12 27 2 43 -15 22z"/>
<path d="M2565 4300 c-3 -5 -1 -10 4 -10 6 0 11 5 11 10 0 6 -2 10 -4 10 -3 0
-8 -4 -11 -10z"/>
<path d="M4311 3794 c0 -11 3 -14 6 -6 3 7 2 16 -1 19 -3 4 -6 -2 -5 -13z"/>
<path d="M4335 3784 c-8 -12 -35 -15 -141 -16 -72 0 -137 -4 -144 -8 -7 -4
-10 -17 -7 -29 7 -27 -1 -31 -43 -22 l-35 8 30 13 c30 12 30 12 8 23 -17 7
-39 5 -85 -7 -35 -9 -75 -20 -90 -23 -40 -8 -34 -21 9 -21 21 0 39 -5 41 -11
2 -7 34 -11 81 -11 47 0 82 -5 89 -12 9 -9 12 -9 12 0 0 8 16 12 43 12 39 -1
41 -2 23 -15 -19 -14 -19 -15 7 -15 33 0 35 -12 5 -33 -20 -14 -21 -16 -5 -16
10 -1 16 -5 13 -10 -4 -5 0 -11 6 -14 7 -2 -25 -9 -72 -14 l-85 -10 83 -2 c46
0 93 4 104 10 15 8 26 8 44 -2 20 -10 27 -10 43 6 14 12 28 15 45 11 14 -3 28
-2 31 4 3 5 -2 10 -12 10 -11 0 -14 3 -7 8 15 10 35 50 32 65 -4 24 15 63 49
95 19 17 33 32 31 33 -2 0 -23 2 -48 4 -33 3 -49 0 -55 -11z"/>
<path d="M3775 3770 c3 -5 8 -10 11 -10 2 0 4 5 4 10 0 6 -5 10 -11 10 -5 0
-7 -4 -4 -10z"/>
<path d="M3903 3654 c-3 -8 -1 -20 6 -27 8 -8 11 -4 11 16 0 30 -7 35 -17 11z"/>
<path d="M1495 4300 c3 -5 8 -10 11 -10 2 0 4 5 4 10 0 6 -5 10 -11 10 -5 0
-7 -4 -4 -10z"/>
<path d="M1482 4248 c3 -7 13 -15 24 -17 16 -3 17 -1 5 13 -16 19 -34 21 -29
4z"/>
<path d="M1850 4219 c0 -5 5 -7 10 -4 6 3 10 8 10 11 0 2 -4 4 -10 4 -5 0 -10
-5 -10 -11z"/>
<path d="M4940 4180 c0 -5 5 -10 10 -10 6 0 10 5 10 10 0 6 -4 10 -10 10 -5 0
-10 -4 -10 -10z"/>
<path d="M1617 4054 c-4 -4 -7 -21 -7 -38 l0 -31 15 29 c14 27 8 56 -8 40z"/>
<path d="M3967 3210 c3 -11 13 -20 22 -19 10 0 11 2 4 6 -7 2 -13 11 -13 19 0
8 -4 14 -9 14 -5 0 -7 -9 -4 -20z"/>
<path d="M4145 3190 c4 -6 11 -8 16 -5 14 9 11 15 -7 15 -8 0 -12 -5 -9 -10z"/>
<path d="M4402 3170 c0 -14 2 -19 5 -12 2 6 2 18 0 25 -3 6 -5 1 -5 -13z"/>
<path d="M4358 5743 c7 -3 16 -2 19 1 4 3 -2 6 -13 5 -11 0 -14 -3 -6 -6z"/>
<path d="M4320 5729 c0 -5 5 -7 10 -4 6 3 10 8 10 11 0 2 -4 4 -10 4 -5 0 -10
-5 -10 -11z"/>
<path d="M4250 5699 c-19 -10 -29 -19 -22 -19 7 0 29 9 49 20 21 11 31 20 23
19 -8 0 -31 -9 -50 -20z"/>
<path d="M4190 5670 c-9 -6 -10 -10 -3 -10 6 0 15 5 18 10 8 12 4 12 -15 0z"/>
<path d="M3098 5593 c7 -3 16 -2 19 1 4 3 -2 6 -13 5 -11 0 -14 -3 -6 -6z"/>
<path d="M3605 5570 c4 -6 11 -8 16 -5 14 9 11 15 -7 15 -8 0 -12 -5 -9 -10z"/>
<path d="M3698 5573 c12 -2 32 -2 45 0 12 2 2 4 -23 4 -25 0 -35 -2 -22 -4z"/>
<path d="M3775 5570 c4 -6 11 -8 16 -5 14 9 11 15 -7 15 -8 0 -12 -5 -9 -10z"/>
<path d="M3837 5569 c7 -7 15 -10 18 -7 3 3 -2 9 -12 12 -14 6 -15 5 -6 -5z"/>
<path d="M60 5560 c0 -5 5 -10 11 -10 5 0 7 5 4 10 -3 6 -8 10 -11 10 -2 0 -4
-4 -4 -10z"/>
<path d="M3853 5533 c9 -2 23 -2 30 0 6 3 -1 5 -18 5 -16 0 -22 -2 -12 -5z"/>
<path d="M525 4980 c-3 -5 -1 -10 4 -10 6 0 11 5 11 10 0 6 -2 10 -4 10 -3 0
-8 -4 -11 -10z"/>
<path d="M625 4979 c-4 -6 -5 -12 -2 -15 2 -3 7 2 10 11 7 17 1 20 -8 4z"/>
<path d="M441 4948 c1 -16 3 -18 6 -6 2 9 12 19 21 21 12 3 10 5 -5 6 -18 1
-23 -4 -22 -21z"/>
<path d="M628 4918 c-10 -12 -18 -26 -18 -30 0 -4 -6 -5 -13 -2 -15 5 -55 -21
-46 -31 4 -3 23 -3 42 0 26 5 38 14 47 35 16 39 9 54 -12 28z"/>
<path d="M440 4913 c0 -5 5 -15 10 -23 8 -12 10 -11 10 8 0 12 -4 22 -10 22
-5 0 -10 -3 -10 -7z"/>
<path d="M816 4881 c-3 -5 1 -14 8 -20 12 -10 13 -8 9 8 -6 23 -9 25 -17 12z"/>
<path d="M225 4450 c-19 -7 -19 -8 -2 -15 10 -4 17 -15 16 -24 -1 -9 1 -23 5
-32 4 -8 2 -27 -3 -41 -10 -26 -6 -38 11 -38 5 0 6 10 3 23 -7 22 -7 22 8 2 8
-11 13 -24 10 -28 -3 -5 3 -7 13 -5 11 2 17 11 15 19 -2 8 -11 43 -20 78 -18
68 -24 75 -56 61z"/>
<path d="M326 4445 c4 -8 10 -15 15 -15 4 0 6 7 3 15 -4 8 -10 15 -15 15 -4 0
-6 -7 -3 -15z"/>
<path d="M691 4351 c-14 -25 -14 -31 -1 -31 6 0 10 10 10 23 0 18 2 19 10 7 6
-9 10 -10 10 -3 0 21 -19 24 -29 4z"/>
<path d="M375 4332 c-4 -18 -12 -35 -17 -38 -18 -12 12 -31 42 -26 34 5 39 17
11 25 -13 3 -21 16 -24 38 l-3 34 -9 -33z"/>
<path d="M526 4325 c-6 -16 19 -33 31 -21 4 3 -2 6 -13 6 -19 1 -19 1 0 15 16
12 17 15 4 15 -9 0 -19 -7 -22 -15z"/>
<path d="M475 4309 c-11 -17 1 -21 15 -4 8 9 8 15 2 15 -6 0 -14 -5 -17 -11z"/>
<path d="M591 4289 c-12 -19 -21 -37 -21 -41 0 -3 -13 -9 -30 -13 -16 -4 -32
-11 -35 -16 -4 -5 1 -6 9 -3 9 3 16 2 16 -4 0 -6 -6 -12 -12 -15 -17 -5 8 -37
28 -37 17 0 18 41 2 60 -11 12 -10 12 2 3 24 -17 70 -22 70 -8 0 7 16 16 35
19 39 8 39 35 -1 30 -17 -1 -24 3 -24 14 0 10 -4 23 -9 31 -7 11 -14 7 -30
-20z m29 -19 c0 -16 -4 -30 -10 -30 -5 0 -10 14 -10 30 0 17 5 30 10 30 6 0
10 -13 10 -30z"/>
<path d="M138 4213 c7 -3 16 -2 19 1 4 3 -2 6 -13 5 -11 0 -14 -3 -6 -6z"/>
<path d="M360 4212 c-17 -6 -30 -22 -30 -37 1 -5 6 -3 13 7 7 9 24 18 37 20
17 2 20 5 10 9 -8 3 -22 4 -30 1z"/>
<path d="M430 4213 c0 -5 13 -8 29 -8 16 0 27 3 24 8 -2 4 -15 7 -29 7 -13 0
-24 -3 -24 -7z"/>
<path d="M648 4198 c2 -10 10 -18 18 -18 7 0 18 8 23 18 9 16 6 19 -18 19 -22
0 -27 -4 -23 -19z"/>
<path d="M118 4183 c7 -3 16 -2 19 1 4 3 -2 6 -13 5 -11 0 -14 -3 -6 -6z"/>
<path d="M598 4183 c7 -3 16 -2 19 1 4 3 -2 6 -13 5 -11 0 -14 -3 -6 -6z"/>
<path d="M2 1598 c-2 -275 -2 -278 19 -278 20 0 20 3 14 133 -19 427 -31 481
-33 145z"/>
<path d="M2626 1415 c-3 -9 -6 -26 -6 -38 1 -20 2 -19 16 7 10 18 12 32 6 38
-6 6 -12 3 -16 -7z"/>
<path d="M2276 1083 c-6 -14 -5 -15 5 -6 7 7 10 15 7 18 -3 3 -9 -2 -12 -12z"/>
<path d="M2241 1073 c-1 -14 -50 -28 -131 -38 -30 -4 -62 -11 -72 -16 -9 -5
-40 -11 -70 -13 -29 -2 -87 -13 -128 -24 -41 -11 -120 -28 -175 -36 -152 -23
-727 -116 -752 -122 -35 -7 -27 -22 15 -28 64 -10 263 -4 352 9 47 8 126 19
175 25 50 6 126 19 170 27 137 27 223 35 246 22 10 -5 31 -6 48 -3 25 5 29 9
20 20 -9 11 -7 14 7 14 11 0 74 9 142 19 l124 19 43 48 c24 26 46 57 49 67 4
15 2 17 -7 8 -15 -15 -44 -14 -50 2 -4 9 -6 9 -6 0z"/>
<path d="M283 1063 c-18 -7 -16 -23 2 -23 8 0 15 7 15 15 0 8 -1 15 -2 14 -2
0 -9 -3 -15 -6z"/>
<path d="M281 778 c-1 -400 -3 -413 -76 -460 l-30 -20 40 7 c22 4 68 6 103 6
35 0 62 4 62 9 0 6 -9 10 -20 10 -11 0 -20 7 -20 15 0 8 4 15 8 15 14 0 52 36
52 49 0 20 26 12 51 -17 50 -58 89 -111 89 -121 0 -21 15 -11 34 22 80 136
146 300 126 312 -4 3 -11 -5 -14 -18 l-6 -22 -15 25 c-11 19 -14 21 -15 8 0
-22 -9 -22 -35 -2 -14 10 -31 13 -57 9 -31 -6 -38 -4 -38 9 0 9 -4 16 -9 16
-5 0 -11 12 -14 28 -4 16 -23 39 -47 56 -22 17 -40 38 -40 47 0 27 -11 49 -25
49 -6 0 -25 7 -42 15 -26 13 -31 22 -37 68 -3 28 -6 71 -6 95 0 23 -4 42 -9
42 -6 0 -10 -105 -10 -252z m59 -176 c0 -13 -4 -20 -10 -17 -5 3 -10 21 -10
38 0 24 3 28 10 17 5 -8 10 -25 10 -38z m327 -74 c-3 -8 -6 -5 -6 6 -1 11 2
17 5 13 3 -3 4 -12 1 -19z"/>
<path d="M2589 948 c0 -24 -4 -65 -8 -91 -5 -27 -4 -44 1 -39 10 10 24 172 14
172 -3 0 -6 -19 -7 -42z"/>
<path d="M1980 891 c0 -13 -88 -33 -113 -26 -15 4 -18 3 -9 -3 9 -6 -25 -15
-105 -26 -65 -10 -135 -22 -156 -27 -21 -6 -48 -7 -60 -3 -12 3 -18 3 -14 -2
5 -5 -47 -18 -115 -30 -68 -12 -124 -18 -126 -13 -2 5 -11 9 -20 9 -13 0 -14
-2 -4 -9 13 -8 -42 -21 -150 -36 -51 -8 -99 2 -78 15 9 6 6 10 -10 15 -16 5
-26 3 -32 -9 -12 -22 -28 -20 -28 4 0 30 -15 24 -17 -6 0 -15 -7 -30 -15 -35
-7 -5 -8 -9 -3 -9 6 0 69 -7 140 -14 72 -8 169 -18 217 -21 48 -4 95 -13 105
-20 15 -12 11 -19 -51 -83 -37 -38 -82 -93 -99 -120 -18 -28 -52 -72 -77 -98
-40 -43 -78 -89 -168 -203 -15 -19 -37 -44 -49 -56 -13 -12 -23 -27 -23 -33 0
-6 -12 -20 -26 -31 l-27 -21 122 0 c80 0 120 4 116 10 -4 6 7 24 24 41 36 36
48 73 31 94 -8 10 -9 15 -1 15 6 0 18 11 27 25 14 21 14 28 3 42 -10 11 -10
14 -1 9 7 -4 12 -1 12 9 0 27 22 53 42 47 12 -3 18 1 18 12 0 8 27 33 60 54
33 22 57 42 54 45 -8 8 127 71 149 69 10 0 17 6 17 18 0 10 13 29 30 43 25 21
27 26 12 32 -14 5 -14 8 -2 15 11 7 8 10 -13 15 -25 7 -38 25 -17 25 5 0 7 7
3 16 -4 11 -13 14 -32 9 -18 -4 -22 -3 -12 4 11 7 8 10 -15 14 -27 4 -26 4 4
3 29 -2 48 13 20 15 -21 2 60 18 160 32 50 8 92 10 92 5 0 -4 5 -8 11 -8 6 0
9 7 6 14 -4 9 -1 13 6 11 7 -3 32 14 57 36 25 22 74 56 110 74 36 19 58 35 50
36 -8 0 -4 5 10 9 24 8 23 8 -7 9 -18 1 -33 -3 -33 -8z"/>
<path d="M1 729 c0 -91 2 -169 7 -173 4 -4 15 -26 25 -49 l18 -42 -6 55 c-3
30 -13 91 -21 135 -9 44 -14 102 -12 130 3 27 1 64 -3 80 -3 17 -7 -45 -8
-136z"/>
<path d="M2010 812 c24 -20 37 -26 42 -18 4 6 2 13 -5 15 -7 2 -14 7 -17 11
-3 4 -16 11 -30 15 -22 6 -21 4 10 -23z"/>
<path d="M1958 793 c15 -11 22 -26 22 -49 0 -40 16 -45 23 -8 5 30 -26 74 -52
73 -12 0 -10 -4 7 -16z"/>
<path d="M1860 755 c-19 -19 -30 -35 -24 -35 5 0 15 9 22 20 9 16 19 19 40 14
38 -9 46 -19 33 -41 -10 -17 -10 -17 -11 1 0 11 -3 16 -7 13 -3 -4 -12 -2 -20
5 -7 6 -17 8 -20 4 -4 -4 -1 -12 7 -17 12 -9 12 -10 -3 -5 -27 9 -57 -11 -57
-37 0 -18 -2 -19 -10 -7 -8 12 -10 10 -11 -10 -5 -98 4 -124 60 -165 26 -19
26 -19 9 1 -23 26 -23 29 4 31 18 2 20 0 8 -7 -14 -9 -6 -15 15 -10 6 1 7 -2
2 -6 -4 -4 12 -18 35 -31 27 -16 44 -20 46 -13 3 8 8 8 18 -1 27 -22 14 8 -16
36 -16 16 -30 36 -30 44 0 26 26 92 33 86 4 -3 5 -2 2 2 -3 3 2 14 10 23 18
20 11 47 -16 55 -10 4 -19 14 -19 24 0 27 -25 44 -51 36 -18 -6 -21 -4 -16 9
9 23 5 21 -33 -19z m110 -65 c0 -5 -4 -10 -10 -10 -5 0 -10 5 -10 10 0 6 5 10
10 10 6 0 10 -4 10 -10z m-123 -32 c-3 -8 -6 -5 -6 6 -1 11 2 17 5 13 3 -3 4
-12 1 -19z m153 12 c0 -5 -2 -10 -4 -10 -3 0 -8 5 -11 10 -3 6 -1 10 4 10 6 0
11 -4 11 -10z"/>
<path d="M492 758 c3 -7 13 -15 22 -16 12 -3 17 1 14 10 -3 7 -13 15 -22 16
-12 3 -17 -1 -14 -10z"/>
<path d="M1168 753 c12 -2 30 -2 40 0 9 3 -1 5 -23 4 -22 0 -30 -2 -17 -4z"/>
<path d="M1118 743 c7 -3 16 -2 19 1 4 3 -2 6 -13 5 -11 0 -14 -3 -6 -6z"/>
<path d="M1068 733 c7 -3 16 -2 19 1 4 3 -2 6 -13 5 -11 0 -14 -3 -6 -6z"/>
<path d="M2031 707 c-13 -21 -12 -21 5 -5 10 10 16 20 13 22 -3 3 -11 -5 -18
-17z"/>
<path d="M1060 539 c12 -8 12 -12 2 -16 -9 -3 -1 -17 23 -44 35 -39 39 -47 36
-84 -2 -18 0 -18 18 5 11 13 17 29 13 34 -3 6 -7 5 -10 -2 -2 -7 -12 3 -23 22
-10 19 -16 42 -13 50 5 14 -30 46 -51 46 -5 0 -3 -5 5 -11z m30 -29 c0 -5 -2
-10 -4 -10 -3 0 -8 5 -11 10 -3 6 -1 10 4 10 6 0 11 -4 11 -10z"/>
<path d="M950 526 c0 -21 11 -25 38 -15 28 11 20 29 -14 29 -14 0 -24 -6 -24
-14z"/>
<path d="M905 520 c-3 -5 1 -10 9 -10 9 0 16 5 16 10 0 6 -4 10 -9 10 -6 0
-13 -4 -16 -10z"/>
<path d="M2055 480 c-19 -7 -19 -8 -2 -15 19 -8 31 -2 26 13 -2 5 -13 6 -24 2z"/>
<path d="M2506 471 c33 -10 71 -24 83 -31 13 -7 21 -7 17 -2 -9 15 -112 52
-139 51 -12 0 5 -9 39 -18z"/>
<path d="M967 463 c-11 -10 -8 -41 4 -49 6 -3 15 -1 19 6 5 7 22 13 40 12 20
0 30 4 27 11 -2 7 -16 12 -30 12 -14 -1 -23 3 -21 7 6 10 -30 11 -39 1z"/>
<path d="M676 415 c-3 -9 -3 -22 1 -27 3 -6 2 -8 -4 -5 -10 6 -73 -84 -73
-104 0 -5 11 -9 24 -9 19 0 24 -5 23 -20 -1 -20 -17 -29 -17 -9 0 5 -5 7 -11
3 -8 -4 -7 -9 2 -15 23 -14 39 -10 39 9 0 25 7 31 31 25 11 -3 19 -14 19 -26
0 -19 -1 -20 -13 -3 -12 16 -14 16 -27 -8 -10 -20 -22 -26 -49 -27 -20 -1 -46
-3 -59 -4 -29 -3 -81 -55 -74 -74 3 -9 1 -12 -6 -7 -6 4 -18 -8 -28 -29 -9
-20 -25 -40 -35 -46 -11 -5 -19 -16 -19 -24 0 -11 39 -14 224 -14 l225 -1 29
38 c30 38 49 77 33 67 -14 -8 -91 35 -91 50 0 7 7 16 16 19 13 5 14 9 4 21 -7
8 -19 15 -27 15 -7 0 -23 9 -35 20 l-22 20 50 2 c44 1 45 2 11 5 -22 3 -53 0
-70 -6 -28 -10 -30 -9 -14 3 18 14 17 14 -2 21 -29 9 -26 42 5 58 l26 14 -24
19 c-13 10 -31 29 -40 42 -13 20 -16 21 -22 7z m104 -205 c0 -5 -7 -10 -15
-10 -8 0 -15 -6 -15 -14 0 -20 -19 -31 -32 -18 -6 6 0 17 18 31 29 23 44 27
44 11z m-290 -161 c0 -6 -4 -7 -10 -4 -5 3 -10 11 -10 16 0 6 5 7 10 4 6 -3
10 -11 10 -16z m130 11 c0 -5 -5 -10 -11 -10 -5 0 -7 5 -4 10 3 6 8 10 11 10
2 0 4 -4 4 -10z m-30 -21 c0 -5 -7 -9 -15 -9 -15 0 -20 12 -9 23 8 8 24 -1 24
-14z m210 11 c0 -5 -4 -10 -10 -10 -5 0 -10 5 -10 10 0 6 5 10 10 10 6 0 10
-4 10 -10z m30 -25 c-7 -8 -17 -15 -22 -15 -6 0 -5 7 2 15 7 8 17 15 22 15 6
0 5 -7 -2 -15z"/>
<path d="M2661 416 c2 -2 22 -6 44 -9 27 -4 35 -3 25 3 -14 9 -79 15 -69 6z"/>
<path d="M877 389 c-23 -13 -13 -29 19 -29 15 0 24 -6 24 -15 0 -8 5 -15 11
-15 5 0 9 8 7 18 -1 9 1 23 6 30 4 7 5 16 1 20 -3 3 -10 0 -15 -8 -7 -10 -10
-11 -10 -2 0 15 -18 15 -43 1z"/>
<path d="M972 384 c-6 -7 -12 -20 -12 -29 0 -12 6 -15 23 -9 29 9 65 34 49 34
-7 0 -11 3 -9 8 9 13 -38 10 -51 -4z"/>
<path d="M3015 384 c-39 -20 -46 -28 -15 -20 14 4 34 8 46 10 11 1 29 8 40 14
17 10 16 11 -11 12 -16 0 -43 -7 -60 -16z"/>
<path d="M2868 383 c7 -3 16 -2 19 1 4 3 -2 6 -13 5 -11 0 -14 -3 -6 -6z"/>
<path d="M800 365 c-7 -9 -11 -17 -9 -20 3 -2 10 5 17 15 14 24 10 26 -8 5z"/>
<path d="M2908 373 c7 -3 16 -2 19 1 4 3 -2 6 -13 5 -11 0 -14 -3 -6 -6z"/>
<path d="M1039 339 c-8 -5 -10 -9 -5 -9 16 0 -17 -31 -48 -45 -37 -16 -15 -19
36 -5 36 11 68 33 68 50 0 12 -36 19 -51 9z"/>
<path d="M119 286 c-3 -3 -28 -7 -57 -9 -29 -2 -56 -8 -60 -12 -9 -10 107 2
139 14 22 9 22 10 3 10 -11 1 -23 -1 -25 -3z"/>
<path d="M3520 279 c0 -5 5 -7 10 -4 6 3 10 8 10 11 0 2 -4 4 -10 4 -5 0 -10
-5 -10 -11z"/>
<path d="M0 100 c0 -92 9 -123 24 -85 3 8 17 20 31 25 14 5 25 14 25 20 0 5 7
10 15 10 8 0 15 3 15 6 0 16 -36 65 -52 70 -10 3 -18 12 -18 19 0 8 -9 19 -20
25 -19 10 -20 8 -20 -90z"/>
<path d="M936 121 c-4 -7 -5 -15 -2 -18 9 -9 19 4 14 18 -4 11 -6 11 -12 0z"/>
</g>
</svg>
